<svg aria-hidden="true" style="position:absolute;width:0;height:0" xmlns="http://www.w3.org/2000/svg" overflow="hidden"><defs><symbol id="ut-retweet" viewBox="0 0 30 28"><path d="M20 23.5c0 .266-.234.5-.5.5h-15c-.578 0-.5-.609-.5-1v-9H1c-.547 0-1-.453-1-1 0-.234.078-.469.234-.641l5-6c.187-.219.469-.344.766-.344s.578.125.766.344l5 6A.955.955 0 0112 13c0 .547-.453 1-1 1H8v6h9c.141 0 .297.063.391.172l2.5 3A.63.63 0 0120 23.5zM30 17a.956.956 0 01-.234.641l-5 6c-.187.219-.469.359-.766.359s-.578-.141-.766-.359l-5-6A.955.955 0 0118 17c0-.547.453-1 1-1h3v-6h-9a.498.498 0 01-.391-.187l-2.5-3A.536.536 0 0110 6.5c0-.266.234-.5.5-.5h15c.578 0 .5.609.5 1v9h3c.547 0 1 .453 1 1z"/></symbol><symbol id="ut-bullhorn" viewBox="0 0 28 28"><path d="M26 10c1.109 0 2 .891 2 2s-.891 2-2 2v6c0 1.094-.906 2-2 2-2.781-2.312-7.266-5.484-12.688-5.938-1.859.625-2.5 2.797-1.281 4.047-1.094 1.797.313 3.063 1.969 4.359-.969 1.906-5 1.937-6.438.609-.906-2.781-2.25-5.563-1.156-9.078H2.5a2.507 2.507 0 01-2.5-2.5v-3c0-1.375 1.125-2.5 2.5-2.5H10c6 0 11-3.5 14-6 1.094 0 2 .906 2 2v6zm-2 9.437V4.531c-4.078 3.125-8.031 4.922-12 5.359v4.219c3.969.438 7.922 2.203 12 5.328z"/></symbol><symbol id="ut-reply" viewBox="0 0 28 28"><path d="M28 17.5c0 2.188-1.094 5.047-1.984 7.047-.172.359-.344.859-.578 1.188-.109.156-.219.266-.438.266-.313 0-.5-.25-.5-.547 0-.25.063-.531.078-.781.047-.641.078-1.281.078-1.922 0-7.453-4.422-8.75-11.156-8.75H10v4c0 .547-.453 1-1 1a.99.99 0 01-.703-.297l-8-8C.11 10.517 0 10.266 0 10.001s.109-.516.297-.703l8-8A.996.996 0 019 1.001c.547 0 1 .453 1 1v4h3.5c5.125 0 11.5.906 13.672 6.297.656 1.656.828 3.453.828 5.203z"/></symbol><symbol id="ut-info" viewBox="0 0 10 28"><path d="M10 21v2c0 .547-.453 1-1 1H1c-.547 0-1-.453-1-1v-2c0-.547.453-1 1-1h1v-6H1c-.547 0-1-.453-1-1v-2c0-.547.453-1 1-1h6c.547 0 1 .453 1 1v9h1c.547 0 1 .453 1 1zM8 3v3c0 .547-.453 1-1 1H3c-.547 0-1-.453-1-1V3c0-.547.453-1 1-1h4c.547 0 1 .453 1 1z"/></symbol><symbol id="ut-flickr" viewBox="0 0 24 28"><path d="M19.5 2C21.984 2 24 4.016 24 6.5v15c0 2.484-2.016 4.5-4.5 4.5h-15A4.502 4.502 0 010 21.5v-15C0 4.016 2.016 2 4.5 2h15zm-8.594 12a3.314 3.314 0 10-3.313 3.313A3.314 3.314 0 0010.906 14zm8.813 0a3.314 3.314 0 10-3.313 3.313A3.314 3.314 0 0019.719 14z"/></symbol><symbol id="ut-tumblr" viewBox="0 0 17 28"><path d="M14.75 20.766L16 24.469c-.469.703-2.594 1.5-4.5 1.531-5.672.094-7.812-4.031-7.812-6.937v-8.5H1.063V7.204C5.001 5.782 5.954 2.22 6.172.188c.016-.125.125-.187.187-.187h3.813v6.625h5.203v3.937h-5.219v8.094c0 1.094.406 2.609 2.5 2.562.688-.016 1.609-.219 2.094-.453z"/></symbol><symbol id="ut-vimeo" viewBox="0 0 28 28"><path d="M26.703 8.094c-.109 2.469-1.844 5.859-5.187 10.172C18.047 22.75 15.141 25 12.735 25c-1.484 0-2.734-1.375-3.75-4.109-.688-2.5-1.375-5.016-2.063-7.531-.75-2.734-1.578-4.094-2.453-4.094-.187 0-.844.391-1.984 1.188L1.282 8.923c1.25-1.109 2.484-2.234 3.719-3.313 1.656-1.469 2.922-2.203 3.766-2.281 1.984-.187 3.187 1.156 3.656 4.047.484 3.125.844 5.078 1.031 5.828.578 2.594 1.188 3.891 1.875 3.891.531 0 1.328-.828 2.406-2.516 1.062-1.687 1.625-2.969 1.703-3.844.141-1.453-.422-2.172-1.703-2.172-.609 0-1.234.141-1.891.406 1.25-4.094 3.641-6.078 7.172-5.969 2.609.078 3.844 1.781 3.687 5.094z"/></symbol><symbol id="ut-reddit" viewBox="0 0 28 28"><path d="M28 13.219A3.105 3.105 0 0126.297 16c.125.484.187.984.187 1.5 0 4.937-5.578 8.937-12.453 8.937-6.859 0-12.437-4-12.437-8.937 0-.5.063-1 .172-1.469A3.135 3.135 0 010 13.219a3.107 3.107 0 015.375-2.125c2.109-1.469 4.922-2.422 8.047-2.531L15.235.422a.547.547 0 01.641-.406l5.766 1.266a2.337 2.337 0 014.422 1.047 2.34 2.34 0 01-2.344 2.344 2.334 2.334 0 01-2.328-2.328l-5.219-1.156-1.625 7.375c3.141.094 5.984 1.031 8.109 2.5a3.063 3.063 0 012.234-.953A3.107 3.107 0 0128 13.22zM6.531 16.328a2.338 2.338 0 002.328 2.344 2.34 2.34 0 002.344-2.344A2.338 2.338 0 008.859 14a2.334 2.334 0 00-2.328 2.328zm12.656 5.547a.557.557 0 000-.812.566.566 0 00-.797 0c-.938.953-2.953 1.281-4.391 1.281s-3.453-.328-4.391-1.281a.566.566 0 00-.797 0 .557.557 0 000 .812c1.484 1.484 4.344 1.594 5.187 1.594s3.703-.109 5.187-1.594zm-.046-3.203a2.338 2.338 0 002.328-2.344A2.334 2.334 0 0019.141 14a2.338 2.338 0 00-2.344 2.328 2.34 2.34 0 002.344 2.344z"/></symbol><symbol id="ut-podcast" viewBox="0 0 24 28"><path d="M15.531 18.625c0 1.031-.109 2.063-.266 3.078-.234 1.625-.469 3.297-.859 4.891C14.125 27.735 13.062 28 12.031 28s-2.094-.266-2.375-1.406c-.391-1.594-.625-3.266-.859-4.891-.156-1.016-.266-2.047-.266-3.078 0-2.109 1.703-2.625 3.5-2.625s3.5.516 3.5 2.625zM24 12c0 5.063-3.125 9.391-7.562 11.156-.172.063-.359-.094-.328-.281.047-.328.094-.672.156-1.031.031-.25.063-.5.094-.734.016-.094.063-.156.141-.187 3.25-1.656 5.5-5.031 5.5-8.922 0-5.703-4.781-10.297-10.547-9.984-5.281.281-9.484 4.781-9.453 10.063.031 3.891 2.297 7.25 5.563 8.875.078.031.125.109.141.187.031.219.063.453.094.703.063.375.109.719.172 1.062.031.187-.172.344-.344.266C2.986 21.36-.248 16.735.018 11.407.315 5.36 5.19.407 11.237.032c6.969-.438 12.766 5.094 12.766 11.969zm-8.469-.5c0 1.937-1.563 3.5-3.5 3.5s-3.5-1.563-3.5-3.5 1.563-3.5 3.5-3.5 3.5 1.563 3.5 3.5zm4.5.5a8.009 8.009 0 01-3.125 6.344c-.156.125-.375.016-.406-.187a3.643 3.643 0 00-.453-1.437c-.063-.094-.047-.219.047-.313a5.965 5.965 0 001.937-4.406c0-3.531-3.078-6.359-6.687-5.969-2.766.313-5.016 2.594-5.281 5.375a5.938 5.938 0 001.906 5c.094.094.109.219.047.313-.281.484-.406 1-.453 1.453-.031.187-.25.297-.406.172a8.031 8.031 0 01-3.125-6.516c.094-4.156 3.469-7.625 7.609-7.812 4.594-.219 8.391 3.437 8.391 7.984z"/></symbol><symbol id="ut-angle-down" viewBox="0 0 18 28"><path d="M16.797 11.5a.54.54 0 01-.156.359L9.36 19.14c-.094.094-.234.156-.359.156s-.266-.063-.359-.156l-7.281-7.281c-.094-.094-.156-.234-.156-.359s.063-.266.156-.359l.781-.781a.508.508 0 01.359-.156.54.54 0 01.359.156l6.141 6.141 6.141-6.141c.094-.094.234-.156.359-.156s.266.063.359.156l.781.781a.536.536 0 01.156.359z"/></symbol><symbol id="ut-angle-left" viewBox="0 0 11 28"><path d="M9.797 8.5a.54.54 0 01-.156.359L3.5 15l6.141 6.141c.094.094.156.234.156.359s-.063.266-.156.359l-.781.781c-.094.094-.234.156-.359.156s-.266-.063-.359-.156L.861 15.359C.767 15.265.705 15.125.705 15s.063-.266.156-.359L8.142 7.36c.094-.094.234-.156.359-.156s.266.063.359.156l.781.781a.508.508 0 01.156.359z"/></symbol><symbol id="ut-angle-right" viewBox="0 0 9 28"><path d="M9.297 15a.54.54 0 01-.156.359L1.86 22.64c-.094.094-.234.156-.359.156s-.266-.063-.359-.156l-.781-.781a.508.508 0 01-.156-.359.54.54 0 01.156-.359L6.502 15 .361 8.859C.267 8.765.205 8.625.205 8.5s.063-.266.156-.359l.781-.781c.094-.094.234-.156.359-.156s.266.063.359.156l7.281 7.281a.536.536 0 01.156.359z"/></symbol><symbol id="ut-angle-up" viewBox="0 0 18 28"><path d="M16.797 18.5a.54.54 0 01-.156.359l-.781.781a.508.508 0 01-.359.156.54.54 0 01-.359-.156l-6.141-6.141L2.86 19.64c-.094.094-.234.156-.359.156s-.266-.063-.359-.156l-.781-.781c-.094-.094-.156-.234-.156-.359s.063-.266.156-.359l7.281-7.281c.094-.094.234-.156.359-.156s.266.063.359.156l7.281 7.281a.536.536 0 01.156.359z"/></symbol><symbol id="ut-ban" viewBox="0 0 24 28"><path d="M20.5 13.953c0-1.703-.5-3.281-1.359-4.609L7.36 21.11a8.488 8.488 0 004.641 1.391c4.688 0 8.5-3.828 8.5-8.547zM4.891 18.625L16.688 6.844A8.34 8.34 0 0012 5.422c-4.688 0-8.5 3.828-8.5 8.531 0 1.734.516 3.328 1.391 4.672zM24 13.953C24 20.609 18.625 26 12 26S0 20.609 0 13.953C0 7.312 5.375 1.922 12 1.922s12 5.391 12 12.031z"/></symbol><symbol id="ut-hamburger" viewBox="0 0 24 28"><path d="M24 21v2c0 .547-.453 1-1 1H1c-.547 0-1-.453-1-1v-2c0-.547.453-1 1-1h22c.547 0 1 .453 1 1zm0-8v2c0 .547-.453 1-1 1H1c-.547 0-1-.453-1-1v-2c0-.547.453-1 1-1h22c.547 0 1 .453 1 1zm0-8v2c0 .547-.453 1-1 1H1c-.547 0-1-.453-1-1V5c0-.547.453-1 1-1h22c.547 0 1 .453 1 1z"/></symbol><symbol id="ut-book" viewBox="0 0 26 28"><path d="M25.609 7.469c.391.562.5 1.297.281 2.016l-4.297 14.156C21.202 24.969 19.827 26 18.484 26H4.062C2.468 26 .765 24.734.187 23.109c-.25-.703-.25-1.391-.031-1.984.031-.313.094-.625.109-1 .016-.25-.125-.453-.094-.641.063-.375.391-.641.641-1.062.469-.781 1-2.047 1.172-2.859.078-.297-.078-.641 0-.906.078-.297.375-.516.531-.797.422-.719.969-2.109 1.047-2.844.031-.328-.125-.688-.031-.938.109-.359.453-.516.688-.828.375-.516 1-2 1.094-2.828.031-.266-.125-.531-.078-.812.063-.297.438-.609.688-.969.656-.969.781-3.109 2.766-2.547l-.016.047C8.939 2.078 9.204 2 9.47 2h11.891c.734 0 1.391.328 1.781.875.406.562.5 1.297.281 2.031l-4.281 14.156C18.408 21.468 18.001 22 16.017 22H2.439c-.203 0-.453.047-.594.234-.125.187-.141.328-.016.672C2.142 23.812 3.22 24 4.079 24h14.422c.578 0 1.25-.328 1.422-.891l4.688-15.422c.094-.297.094-.609.078-.891.359.141.688.359.922.672zM8.984 7.5c-.094.281.063.5.344.5h9.5c.266 0 .562-.219.656-.5l.328-1c.094-.281-.063-.5-.344-.5h-9.5c-.266 0-.562.219-.656.5zm-1.296 4c-.094.281.063.5.344.5h9.5c.266 0 .562-.219.656-.5l.328-1c.094-.281-.063-.5-.344-.5h-9.5c-.266 0-.562.219-.656.5z"/></symbol><symbol id="ut-bookmark" viewBox="0 0 20 28"><path d="M18.188 2c.234 0 .469.047.688.141a1.73 1.73 0 011.125 1.609v20.141a1.73 1.73 0 01-1.125 1.609 1.727 1.727 0 01-.688.125 1.9 1.9 0 01-1.297-.5L10 18.5l-6.891 6.625a1.914 1.914 0 01-1.297.516c-.234 0-.469-.047-.688-.141a1.73 1.73 0 01-1.125-1.609V3.75a1.73 1.73 0 011.125-1.609c.219-.094.453-.141.688-.141h16.375z"/></symbol><symbol id="ut-bug" viewBox="0 0 26 28"><path d="M25.5 15c0 .547-.453 1-1 1H21c0 1.953-.422 3.422-1.047 4.531l3.25 3.266a.99.99 0 010 1.406c-.187.203-.453.297-.703.297s-.516-.094-.703-.297l-3.094-3.078S16.656 24 14 24V10h-2v14c-2.828 0-4.891-2.063-4.891-2.063L4.25 25.171a1.027 1.027 0 01-1.422.078c-.406-.375-.438-1-.078-1.422l3.156-3.547C5.359 19.202 5 17.811 5 15.999H1.5c-.547 0-1-.453-1-1s.453-1 1-1H5V9.405L2.297 6.702c-.391-.391-.391-1.016 0-1.406s1.016-.391 1.406 0l2.703 2.703h13.188l2.703-2.703c.391-.391 1.016-.391 1.406 0s.391 1.016 0 1.406L21 9.405v4.594h3.5c.547 0 1 .453 1 1zM18 6H8c0-2.766 2.234-5 5-5s5 2.234 5 5z"/></symbol><symbol id="ut-caret-down" viewBox="0 0 16 28"><path d="M16 11a.99.99 0 01-.297.703l-7 7C8.516 18.89 8.265 19 8 19s-.516-.109-.703-.297l-7-7A.996.996 0 010 11c0-.547.453-1 1-1h14c.547 0 1 .453 1 1z"/></symbol><symbol id="ut-caret-left" viewBox="0 0 11 28"><path d="M10 7v14c0 .547-.453 1-1 1a.99.99 0 01-.703-.297l-7-7C1.11 14.516 1 14.265 1 14s.109-.516.297-.703l7-7A.996.996 0 019 6c.547 0 1 .453 1 1z"/></symbol><symbol id="ut-caret-right" viewBox="0 0 9 28"><path d="M9 14a.99.99 0 01-.297.703l-7 7A.996.996 0 011 22c-.547 0-1-.453-1-1V7c0-.547.453-1 1-1a.99.99 0 01.703.297l7 7A.996.996 0 019 14z"/></symbol><symbol id="ut-caret-up" viewBox="0 0 16 28"><path d="M16 19c0 .547-.453 1-1 1H1c-.547 0-1-.453-1-1a.99.99 0 01.297-.703l7-7C7.484 11.11 7.735 11 8 11s.516.109.703.297l7 7A.996.996 0 0116 19z"/></symbol><symbol id="ut-chain" viewBox="0 0 26 28"><path d="M22.75 19c0-.406-.156-.781-.438-1.062l-3.25-3.25A1.516 1.516 0 0018 14.25c-.453 0-.812.172-1.125.5.516.516 1.125.953 1.125 1.75a1.5 1.5 0 01-1.5 1.5c-.797 0-1.234-.609-1.75-1.125-.328.313-.516.672-.516 1.141 0 .391.156.781.438 1.062l3.219 3.234c.281.281.672.422 1.062.422s.781-.141 1.062-.406l2.297-2.281A1.48 1.48 0 0022.75 19zM11.766 7.984a1.51 1.51 0 00-.438-1.062L8.109 3.688c-.281-.281-.672-.438-1.062-.438s-.781.156-1.062.422L3.688 5.953a1.484 1.484 0 000 2.109l3.25 3.25A1.5 1.5 0 008 11.734c.453 0 .812-.156 1.125-.484C8.609 10.734 8 10.297 8 9.5A1.5 1.5 0 019.5 8c.797 0 1.234.609 1.75 1.125.328-.313.516-.672.516-1.141zM25.75 19a4.468 4.468 0 01-1.328 3.172l-2.297 2.281a4.466 4.466 0 01-3.172 1.297 4.44 4.44 0 01-3.187-1.328l-3.219-3.234a4.466 4.466 0 01-1.297-3.172c0-1.234.5-2.406 1.375-3.266l-1.375-1.375A4.539 4.539 0 018 14.75a4.514 4.514 0 01-3.187-1.313l-3.25-3.25A4.454 4.454 0 01.25 7c0-1.188.484-2.344 1.328-3.172l2.297-2.281A4.466 4.466 0 017.047.25a4.44 4.44 0 013.187 1.328l3.219 3.234a4.466 4.466 0 011.297 3.172c0 1.234-.5 2.406-1.375 3.266l1.375 1.375A4.539 4.539 0 0118 11.25c1.188 0 2.344.469 3.187 1.313l3.25 3.25A4.454 4.454 0 0125.75 19z"/></symbol><symbol id="ut-check" viewBox="0 0 28 28"><path d="M26.109 8.844c0 .391-.156.781-.438 1.062L12.233 23.344c-.281.281-.672.438-1.062.438s-.781-.156-1.062-.438l-7.781-7.781c-.281-.281-.438-.672-.438-1.062s.156-.781.438-1.062l2.125-2.125c.281-.281.672-.438 1.062-.438s.781.156 1.062.438l4.594 4.609 10.25-10.266c.281-.281.672-.438 1.062-.438s.781.156 1.062.438l2.125 2.125c.281.281.438.672.438 1.062z"/></symbol><symbol id="ut-check-circle" viewBox="0 0 24 28"><path d="M20.062 11.469c0-.266-.094-.531-.281-.719l-1.422-1.406c-.187-.187-.438-.297-.703-.297s-.516.109-.703.297l-6.375 6.359-3.531-3.531c-.187-.187-.438-.297-.703-.297s-.516.109-.703.297l-1.422 1.406c-.187.187-.281.453-.281.719s.094.516.281.703l5.656 5.656c.187.187.453.297.703.297.266 0 .531-.109.719-.297l8.484-8.484a.981.981 0 00.281-.703zM24 14c0 6.625-5.375 12-12 12S0 20.625 0 14 5.375 2 12 2s12 5.375 12 12z"/></symbol><symbol id="ut-chevron-down" viewBox="0 0 28 28"><path d="M26.297 12.625L14.703 24.203a.99.99 0 01-1.406 0L1.703 12.625a1.009 1.009 0 010-1.422l2.594-2.578a.99.99 0 011.406 0L14 16.922l8.297-8.297a.99.99 0 011.406 0l2.594 2.578a1.009 1.009 0 010 1.422z"/></symbol><symbol id="ut-chevron-left" viewBox="0 0 21 28"><path d="M18.297 4.703L10 13l8.297 8.297a.99.99 0 010 1.406l-2.594 2.594a.99.99 0 01-1.406 0L2.703 13.703a.99.99 0 010-1.406L14.297.703a.99.99 0 011.406 0l2.594 2.594a.99.99 0 010 1.406z"/></symbol><symbol id="ut-chevron-right" viewBox="0 0 19 28"><path d="M17.297 13.703L5.703 25.297a.99.99 0 01-1.406 0l-2.594-2.594a.99.99 0 010-1.406L10 13 1.703 4.703a.99.99 0 010-1.406L4.297.703a.99.99 0 011.406 0l11.594 11.594a.99.99 0 010 1.406z"/></symbol><symbol id="ut-chevron-up" viewBox="0 0 28 28"><path d="M26.297 20.797l-2.594 2.578a.99.99 0 01-1.406 0L14 15.078l-8.297 8.297a.99.99 0 01-1.406 0l-2.594-2.578a1.009 1.009 0 010-1.422L13.297 7.797a.99.99 0 011.406 0l11.594 11.578a1.009 1.009 0 010 1.422z"/></symbol><symbol id="ut-circle" viewBox="0 0 24 28"><path d="M24 14c0 6.625-5.375 12-12 12S0 20.625 0 14 5.375 2 12 2s12 5.375 12 12z"/></symbol><symbol id="ut-circle-o" viewBox="0 0 24 28"><path d="M12 5.5c-4.688 0-8.5 3.813-8.5 8.5s3.813 8.5 8.5 8.5 8.5-3.813 8.5-8.5-3.813-8.5-8.5-8.5zM24 14c0 6.625-5.375 12-12 12S0 20.625 0 14 5.375 2 12 2s12 5.375 12 12z"/></symbol><symbol id="ut-clone" viewBox="0 0 28 28"><path d="M26 25.5v-17c0-.266-.234-.5-.5-.5h-17c-.266 0-.5.234-.5.5v17c0 .266.234.5.5.5h17c.266 0 .5-.234.5-.5zm2-17v17c0 1.375-1.125 2.5-2.5 2.5h-17A2.507 2.507 0 016 25.5v-17C6 7.125 7.125 6 8.5 6h17C26.875 6 28 7.125 28 8.5zm-6-6V5h-2V2.5c0-.266-.234-.5-.5-.5h-17c-.266 0-.5.234-.5.5v17c0 .266.234.5.5.5H5v2H2.5A2.507 2.507 0 010 19.5v-17C0 1.125 1.125 0 2.5 0h17C20.875 0 22 1.125 22 2.5z"/></symbol><symbol id="ut-close" viewBox="0 0 22 28"><path d="M20.281 20.656c0 .391-.156.781-.438 1.062l-2.125 2.125c-.281.281-.672.438-1.062.438s-.781-.156-1.062-.438L11 19.249l-4.594 4.594c-.281.281-.672.438-1.062.438s-.781-.156-1.062-.438l-2.125-2.125c-.281-.281-.438-.672-.438-1.062s.156-.781.438-1.062L6.751 15l-4.594-4.594c-.281-.281-.438-.672-.438-1.062s.156-.781.438-1.062l2.125-2.125c.281-.281.672-.438 1.062-.438s.781.156 1.062.438L11 10.751l4.594-4.594c.281-.281.672-.438 1.062-.438s.781.156 1.062.438l2.125 2.125c.281.281.438.672.438 1.062s-.156.781-.438 1.062L15.249 15l4.594 4.594c.281.281.438.672.438 1.062z"/></symbol><symbol id="ut-download-cloud" viewBox="0 0 30 28"><path d="M20 14.5c0-.281-.219-.5-.5-.5H16V8.5c0-.266-.234-.5-.5-.5h-3c-.266 0-.5.234-.5.5V14H8.5c-.281 0-.5.234-.5.5 0 .125.047.266.141.359l5.5 5.5A.495.495 0 0014 20.5a.518.518 0 00.359-.141l5.484-5.484a.573.573 0 00.156-.375zM30 18c0 3.313-2.688 6-6 6H7c-3.859 0-7-3.141-7-7a6.98 6.98 0 014.031-6.328C4.015 10.438 4 10.219 4 10c0-4.422 3.578-8 8-8a8.013 8.013 0 017.406 4.969A3.955 3.955 0 0122 6c2.203 0 4 1.797 4 4 0 .766-.219 1.516-.641 2.156A6.014 6.014 0 0130 18z"/></symbol><symbol id="ut-code" viewBox="0 0 30 28"><path d="M9.641 21.859l-.781.781a.5.5 0 01-.719 0L.86 15.359a.5.5 0 010-.719l7.281-7.281a.5.5 0 01.719 0l.781.781a.5.5 0 010 .719L3.5 15l6.141 6.141a.5.5 0 010 .719zm9.234-16.672l-5.828 20.172a.496.496 0 01-.609.344l-.969-.266a.506.506 0 01-.344-.625L16.953 4.64a.496.496 0 01.609-.344l.969.266a.506.506 0 01.344.625zm10.266 10.172L21.86 22.64a.5.5 0 01-.719 0l-.781-.781a.5.5 0 010-.719l6.141-6.141-6.141-6.141a.5.5 0 010-.719l.781-.781a.5.5 0 01.719 0l7.281 7.281a.5.5 0 010 .719z"/></symbol><symbol id="ut-download" viewBox="0 0 26 28"><path d="M20 21c0-.547-.453-1-1-1s-1 .453-1 1 .453 1 1 1 1-.453 1-1zm4 0c0-.547-.453-1-1-1s-1 .453-1 1 .453 1 1 1 1-.453 1-1zm2-3.5v5a1.5 1.5 0 01-1.5 1.5h-23A1.5 1.5 0 010 22.5v-5A1.5 1.5 0 011.5 16h7.266l2.109 2.125c.578.562 1.328.875 2.125.875s1.547-.313 2.125-.875L17.25 16h7.25a1.5 1.5 0 011.5 1.5zm-5.078-8.891a.984.984 0 01-.219 1.094l-7 7c-.187.203-.453.297-.703.297s-.516-.094-.703-.297l-7-7a.984.984 0 01-.219-1.094C5.234 8.25 5.594 8 6 8h4V1c0-.547.453-1 1-1h4c.547 0 1 .453 1 1v7h4c.406 0 .766.25.922.609z"/></symbol><symbol id="ut-ellipsis" viewBox="0 0 22 28"><path d="M6 11.5v3A1.5 1.5 0 014.5 16h-3A1.5 1.5 0 010 14.5v-3A1.5 1.5 0 011.5 10h3A1.5 1.5 0 016 11.5zm8 0v3a1.5 1.5 0 01-1.5 1.5h-3A1.5 1.5 0 018 14.5v-3A1.5 1.5 0 019.5 10h3a1.5 1.5 0 011.5 1.5zm8 0v3a1.5 1.5 0 01-1.5 1.5h-3a1.5 1.5 0 01-1.5-1.5v-3a1.5 1.5 0 011.5-1.5h3a1.5 1.5 0 011.5 1.5z"/></symbol><symbol id="ut-envelope" viewBox="0 0 28 28"><path d="M28 11.094V23.5c0 1.375-1.125 2.5-2.5 2.5h-23A2.507 2.507 0 010 23.5V11.094c.469.516 1 .969 1.578 1.359 2.594 1.766 5.219 3.531 7.766 5.391 1.313.969 2.938 2.156 4.641 2.156h.031c1.703 0 3.328-1.188 4.641-2.156 2.547-1.844 5.172-3.625 7.781-5.391a9.278 9.278 0 001.563-1.359zM28 6.5c0 1.75-1.297 3.328-2.672 4.281-2.438 1.687-4.891 3.375-7.313 5.078-1.016.703-2.734 2.141-4 2.141h-.031c-1.266 0-2.984-1.437-4-2.141-2.422-1.703-4.875-3.391-7.297-5.078-1.109-.75-2.688-2.516-2.688-3.938 0-1.531.828-2.844 2.5-2.844h23c1.359 0 2.5 1.125 2.5 2.5z"/></symbol><symbol id="ut-warning" viewBox="0 0 28 28"><path d="M16 21.484v-2.969a.508.508 0 00-.5-.516h-3c-.281 0-.5.234-.5.516v2.969c0 .281.219.516.5.516h3c.281 0 .5-.234.5-.516zm-.031-5.843l.281-7.172a.378.378 0 00-.156-.297C16 8.094 15.86 8 15.719 8h-3.437c-.141 0-.281.094-.375.172-.109.078-.156.234-.156.328l.266 7.141c0 .203.234.359.531.359h2.891c.281 0 .516-.156.531-.359zM15.75 1.047l12 22c.344.609.328 1.359-.031 1.969S26.703 26 26 26H2c-.703 0-1.359-.375-1.719-.984s-.375-1.359-.031-1.969l12-22a1.988 1.988 0 013.5 0z"/></symbol><symbol id="ut-external-link" viewBox="0 0 28 28"><path d="M22 14.5v5c0 2.484-2.016 4.5-4.5 4.5h-13A4.502 4.502 0 010 19.5v-13C0 4.016 2.016 2 4.5 2h11c.281 0 .5.219.5.5v1c0 .281-.219.5-.5.5h-11A2.507 2.507 0 002 6.5v13C2 20.875 3.125 22 4.5 22h13c1.375 0 2.5-1.125 2.5-2.5v-5c0-.281.219-.5.5-.5h1c.281 0 .5.219.5.5zM28 1v8c0 .547-.453 1-1 1a.99.99 0 01-.703-.297l-2.75-2.75L13.36 17.14c-.094.094-.234.156-.359.156s-.266-.063-.359-.156l-1.781-1.781c-.094-.094-.156-.234-.156-.359s.063-.266.156-.359L21.048 4.454l-2.75-2.75a.996.996 0 01-.297-.703c0-.547.453-1 1-1h8c.547 0 1 .453 1 1z"/></symbol><symbol id="ut-eye" viewBox="0 0 28 28"><path d="M26 15c-1.484-2.297-3.516-4.266-5.953-5.516A6.943 6.943 0 0121 13c0 3.859-3.141 7-7 7s-7-3.141-7-7c0-1.234.328-2.453.953-3.516C5.515 10.734 3.484 12.703 2 15c2.672 4.125 6.984 7 12 7s9.328-2.875 12-7zM14.75 9a.76.76 0 00-.75-.75c-2.609 0-4.75 2.141-4.75 4.75 0 .406.344.75.75.75s.75-.344.75-.75A3.268 3.268 0 0114 9.75a.76.76 0 00.75-.75zM28 15c0 .391-.125.75-.313 1.078C24.812 20.812 19.546 24 14 24S3.187 20.797.313 16.078C.126 15.75 0 15.39 0 15s.125-.75.313-1.078C3.188 9.203 8.454 6 14 6s10.813 3.203 13.687 7.922c.187.328.313.688.313 1.078z"/></symbol><symbol id="ut-eye-slash" viewBox="0 0 28 28"><path d="M8.672 20.859l1.219-2.203A6.995 6.995 0 017 13c0-1.234.328-2.453.953-3.516C5.515 10.734 3.484 12.703 2 15c1.625 2.516 3.922 4.625 6.672 5.859zM14.75 9a.76.76 0 00-.75-.75c-2.609 0-4.75 2.141-4.75 4.75 0 .406.344.75.75.75s.75-.344.75-.75A3.258 3.258 0 0114 9.75a.76.76 0 00.75-.75zm5.672-2.984c0 .031 0 .109-.016.141-3.297 5.891-6.563 11.813-9.859 17.703l-.766 1.391a.52.52 0 01-.438.25c-.281 0-1.766-.906-2.094-1.094a.5.5 0 01-.25-.438c0-.25.531-1.094.688-1.359-3.031-1.375-5.578-3.719-7.375-6.531a1.981 1.981 0 01-.313-1.078c0-.375.109-.766.313-1.078 3.094-4.75 7.922-7.922 13.687-7.922.938 0 1.891.094 2.812.266l.844-1.516a.5.5 0 01.438-.25c.281 0 1.75.906 2.078 1.094.156.094.25.25.25.422zM21 13a6.99 6.99 0 01-4.5 6.531l4.375-7.844c.078.438.125.875.125 1.313zm7 2c0 .406-.109.734-.313 1.078-.484.797-1.094 1.563-1.703 2.266C22.921 21.86 18.703 24 14 24l1.156-2.063C19.703 21.546 23.562 18.781 26 15c-1.156-1.797-2.641-3.375-4.406-4.594l.984-1.75c1.937 1.297 3.891 3.25 5.109 5.266.203.344.313.672.313 1.078z"/></symbol><symbol id="ut-facebook" viewBox="0 0 16 28"><path d="M14.984.187v4.125h-2.453c-1.922 0-2.281.922-2.281 2.25v2.953h4.578l-.609 4.625H10.25v11.859H5.469V14.14H1.485V9.515h3.984V6.109C5.469 2.156 7.891 0 11.422 0c1.687 0 3.141.125 3.563.187z"/></symbol><symbol id="ut-github" viewBox="0 0 26 28"><path d="M10 19c0 1.141-.594 3-2 3s-2-1.859-2-3 .594-3 2-3 2 1.859 2 3zm10 0c0 1.141-.594 3-2 3s-2-1.859-2-3 .594-3 2-3 2 1.859 2 3zm2.5 0c0-2.391-1.453-4.5-4-4.5-1.031 0-2.016.187-3.047.328-.812.125-1.625.172-2.453.172s-1.641-.047-2.453-.172C9.531 14.687 8.531 14.5 7.5 14.5c-2.547 0-4 2.109-4 4.5 0 4.781 4.375 5.516 8.188 5.516h2.625c3.813 0 8.188-.734 8.188-5.516zm3.5-2.75c0 1.734-.172 3.578-.953 5.172C22.984 25.594 17.313 26 13.25 26 9.125 26 3.109 25.641.969 21.422.172 19.844 0 17.985 0 16.25c0-2.281.625-4.438 2.125-6.188a8.59 8.59 0 01-.422-2.656c0-1.172.266-2.344.797-3.406 2.469 0 4.047 1.078 5.922 2.547A20.895 20.895 0 0113.25 6c1.469 0 2.953.156 4.375.5C19.484 5.047 21.062 4 23.5 4a7.625 7.625 0 01.797 3.406c0 .891-.141 1.781-.422 2.625C25.375 11.797 26 13.969 26 16.25z"/></symbol><symbol id="ut-google-plus" viewBox="0 0 36 28"><path d="M22.453 14.266c0 6.547-4.391 11.188-11 11.188C5.125 25.454 0 20.329 0 14.001S5.125 2.548 11.453 2.548c3.094 0 5.672 1.125 7.672 3l-3.109 2.984c-.844-.812-2.328-1.766-4.562-1.766C7.548 6.766 4.36 10 4.36 14s3.187 7.234 7.094 7.234c4.531 0 6.234-3.266 6.5-4.937h-6.5v-3.938h10.813c.109.578.187 1.156.187 1.906zM36 12.359v3.281h-3.266v3.266h-3.281V15.64h-3.266v-3.281h3.266V9.093h3.281v3.266H36z"/></symbol><symbol id="ut-heart" viewBox="0 0 28 28"><path d="M14 26c-.25 0-.5-.094-.688-.281l-9.75-9.406c-.125-.109-3.563-3.25-3.563-7C-.001 4.735 2.796 2 7.468 2c2.734 0 5.297 2.156 6.531 3.375C15.233 4.156 17.796 2 20.53 2c4.672 0 7.469 2.734 7.469 7.313 0 3.75-3.437 6.891-3.578 7.031l-9.734 9.375a.972.972 0 01-.688.281z"/></symbol><symbol id="ut-heart-o" viewBox="0 0 28 28"><path d="M26 9.312c0-4.391-2.969-5.313-5.469-5.313-2.328 0-4.953 2.516-5.766 3.484-.375.453-1.156.453-1.531 0-.812-.969-3.437-3.484-5.766-3.484-2.5 0-5.469.922-5.469 5.313 0 2.859 2.891 5.516 2.922 5.547l9.078 8.75 9.063-8.734C23.109 14.828 26 12.172 26 9.312zm2 0c0 3.75-3.437 6.891-3.578 7.031l-9.734 9.375c-.187.187-.438.281-.688.281s-.5-.094-.688-.281l-9.75-9.406c-.125-.109-3.563-3.25-3.563-7 0-4.578 2.797-7.313 7.469-7.313 2.734 0 5.297 2.156 6.531 3.375 1.234-1.219 3.797-3.375 6.531-3.375 4.672 0 7.469 2.734 7.469 7.313z"/></symbol><symbol id="ut-home" viewBox="0 0 26 28"><path d="M22 15.5V23c0 .547-.453 1-1 1h-6v-6h-4v6H5c-.547 0-1-.453-1-1v-7.5c0-.031.016-.063.016-.094L13 8l8.984 7.406c.016.031.016.063.016.094zm3.484-1.078l-.969 1.156a.52.52 0 01-.328.172h-.047a.49.49 0 01-.328-.109L12.999 6.625 2.186 15.641a.531.531 0 01-.375.109.52.52 0 01-.328-.172l-.969-1.156a.51.51 0 01.063-.703L11.811 4.36c.656-.547 1.719-.547 2.375 0l3.813 3.187V4.5c0-.281.219-.5.5-.5h3c.281 0 .5.219.5.5v6.375l3.422 2.844c.203.172.234.5.063.703z"/></symbol><symbol id="ut-info-circle" viewBox="0 0 24 28"><path d="M16 21.5V19c0-.281-.219-.5-.5-.5H14v-8c0-.281-.219-.5-.5-.5h-5c-.281 0-.5.219-.5.5V13c0 .281.219.5.5.5H10v5H8.5c-.281 0-.5.219-.5.5v2.5c0 .281.219.5.5.5h7c.281 0 .5-.219.5-.5zm-2-14V5c0-.281-.219-.5-.5-.5h-3c-.281 0-.5.219-.5.5v2.5c0 .281.219.5.5.5h3c.281 0 .5-.219.5-.5zM24 14c0 6.625-5.375 12-12 12S0 20.625 0 14 5.375 2 12 2s12 5.375 12 12z"/></symbol><symbol id="ut-instagram" viewBox="0 0 24 28"><path d="M16 14c0-2.203-1.797-4-4-4s-4 1.797-4 4 1.797 4 4 4 4-1.797 4-4zm2.156 0c0 3.406-2.75 6.156-6.156 6.156S5.844 17.406 5.844 14 8.594 7.844 12 7.844s6.156 2.75 6.156 6.156zm1.688-6.406c0 .797-.641 1.437-1.437 1.437S16.97 8.39 16.97 7.594s.641-1.437 1.437-1.437 1.437.641 1.437 1.437zM12 4.156c-1.75 0-5.5-.141-7.078.484-.547.219-.953.484-1.375.906s-.688.828-.906 1.375c-.625 1.578-.484 5.328-.484 7.078s-.141 5.5.484 7.078c.219.547.484.953.906 1.375s.828.688 1.375.906c1.578.625 5.328.484 7.078.484s5.5.141 7.078-.484c.547-.219.953-.484 1.375-.906s.688-.828.906-1.375c.625-1.578.484-5.328.484-7.078s.141-5.5-.484-7.078c-.219-.547-.484-.953-.906-1.375s-.828-.688-1.375-.906C17.5 4.015 13.75 4.156 12 4.156zM24 14c0 1.656.016 3.297-.078 4.953-.094 1.922-.531 3.625-1.937 5.031s-3.109 1.844-5.031 1.937c-1.656.094-3.297.078-4.953.078s-3.297.016-4.953-.078c-1.922-.094-3.625-.531-5.031-1.937S.173 20.875.08 18.953C-.014 17.297.002 15.656.002 14s-.016-3.297.078-4.953c.094-1.922.531-3.625 1.937-5.031s3.109-1.844 5.031-1.937c1.656-.094 3.297-.078 4.953-.078s3.297-.016 4.953.078c1.922.094 3.625.531 5.031 1.937s1.844 3.109 1.937 5.031C24.016 10.703 24 12.344 24 14z"/></symbol><symbol id="ut-linkedin" viewBox="0 0 24 28"><path d="M5.453 9.766V25.25H.297V9.766h5.156zm.328-4.782c.016 1.484-1.109 2.672-2.906 2.672h-.031C1.11 7.656 0 6.468 0 4.984c0-1.516 1.156-2.672 2.906-2.672 1.766 0 2.859 1.156 2.875 2.672zM24 16.375v8.875h-5.141v-8.281c0-2.078-.75-3.5-2.609-3.5-1.422 0-2.266.953-2.641 1.875-.125.344-.172.797-.172 1.266v8.641H8.296c.063-14.031 0-15.484 0-15.484h5.141v2.25h-.031c.672-1.062 1.891-2.609 4.672-2.609 3.391 0 5.922 2.219 5.922 6.969z"/></symbol><symbol id="ut-lock" viewBox="0 0 18 28"><path d="M5 12h8V9c0-2.203-1.797-4-4-4S5 6.797 5 9v3zm13 1.5v9a1.5 1.5 0 01-1.5 1.5h-15A1.5 1.5 0 010 22.5v-9A1.5 1.5 0 011.5 12H2V9c0-3.844 3.156-7 7-7s7 3.156 7 7v3h.5a1.5 1.5 0 011.5 1.5z"/></symbol><symbol id="ut-medium" viewBox="0 0 28 28"><path d="M9.328 6.578v18.328c0 .484-.234.938-.766.938a1.15 1.15 0 01-.516-.125L.78 22.078c-.438-.219-.781-.781-.781-1.25V3.015c0-.391.187-.75.609-.75.25 0 .469.125.688.234l7.984 4a.21.21 0 01.047.078zm1 1.578l8.344 13.531-8.344-4.156V8.156zM28 8.437v16.469c0 .516-.297.875-.812.875-.266 0-.516-.078-.734-.203l-6.891-3.437zm-.047-1.874c0 .063-8.078 13.172-8.703 14.172l-6.094-9.906 5.063-8.234a.943.943 0 01.812-.438c.141 0 .281.031.406.094L27.89 6.47c.031.016.063.047.063.094z"/></symbol><symbol id="ut-minus-circle" viewBox="0 0 24 28"><path d="M19 15v-2c0-.547-.453-1-1-1H6c-.547 0-1 .453-1 1v2c0 .547.453 1 1 1h12c.547 0 1-.453 1-1zm5-1c0 6.625-5.375 12-12 12S0 20.625 0 14 5.375 2 12 2s12 5.375 12 12z"/></symbol><symbol id="ut-send" viewBox="0 0 28 28"><path d="M27.563.172c.328.234.484.609.422 1l-4 24a1.002 1.002 0 01-.984.828c-.125 0-.25-.031-.375-.078l-7.078-2.891-3.781 4.609a.971.971 0 01-.766.359.894.894 0 01-.344-.063.997.997 0 01-.656-.938v-5.453l13.5-16.547L6.798 19.451.626 16.92a.99.99 0 01-.625-.859 1.01 1.01 0 01.5-.922l26-15a.966.966 0 01.5-.141c.203 0 .406.063.562.172z"/></symbol><symbol id="ut-pause-circle" viewBox="0 0 24 28"><path d="M11 18.5v-9c0-.281-.219-.5-.5-.5h-4c-.281 0-.5.219-.5.5v9c0 .281.219.5.5.5h4c.281 0 .5-.219.5-.5zm7 0v-9c0-.281-.219-.5-.5-.5h-4c-.281 0-.5.219-.5.5v9c0 .281.219.5.5.5h4c.281 0 .5-.219.5-.5zm6-4.5c0 6.625-5.375 12-12 12S0 20.625 0 14 5.375 2 12 2s12 5.375 12 12z"/></symbol><symbol id="ut-play-circle" viewBox="0 0 24 28"><path d="M12 2c6.625 0 12 5.375 12 12s-5.375 12-12 12S0 20.625 0 14 5.375 2 12 2zm6 12.859c.313-.172.5-.5.5-.859s-.187-.688-.5-.859l-8.5-5a.998.998 0 00-1-.016c-.313.187-.5.516-.5.875v10c0 .359.187.688.5.875.156.078.328.125.5.125s.344-.047.5-.141z"/></symbol><symbol id="ut-plus-circle" viewBox="0 0 24 28"><path d="M19 15v-2c0-.547-.453-1-1-1h-4V8c0-.547-.453-1-1-1h-2c-.547 0-1 .453-1 1v4H6c-.547 0-1 .453-1 1v2c0 .547.453 1 1 1h4v4c0 .547.453 1 1 1h2c.547 0 1-.453 1-1v-4h4c.547 0 1-.453 1-1zm5-1c0 6.625-5.375 12-12 12S0 20.625 0 14 5.375 2 12 2s12 5.375 12 12z"/></symbol><symbol id="ut-question-circle" viewBox="0 0 24 28"><path d="M14 21.5v-3c0-.281-.219-.5-.5-.5h-3c-.281 0-.5.219-.5.5v3c0 .281.219.5.5.5h3c.281 0 .5-.219.5-.5zM18 11c0-2.859-3-5-5.688-5-2.547 0-4.453 1.094-5.797 3.328a.49.49 0 00.125.656l2.063 1.563a.477.477 0 00.297.094.498.498 0 00.391-.187c.734-.938 1.047-1.219 1.344-1.437.266-.187.781-.375 1.344-.375 1 0 1.922.641 1.922 1.328 0 .812-.422 1.219-1.375 1.656-1.109.5-2.625 1.797-2.625 3.313v.562c0 .281.219.5.5.5h3c.281 0 .5-.219.5-.5 0-.359.453-1.125 1.188-1.547 1.188-.672 2.812-1.578 2.812-3.953zm6 3c0 6.625-5.375 12-12 12S0 20.625 0 14 5.375 2 12 2s12 5.375 12 12z"/></symbol><symbol id="ut-quote-left" viewBox="0 0 26 28"><path d="M12 15v6c0 1.656-1.344 3-3 3H3c-1.656 0-3-1.344-3-3V10c0-4.406 3.594-8 8-8h1c.547 0 1 .453 1 1v2c0 .547-.453 1-1 1H8c-2.203 0-4 1.797-4 4v.5A1.5 1.5 0 005.5 12H9c1.656 0 3 1.344 3 3zm14 0v6c0 1.656-1.344 3-3 3h-6c-1.656 0-3-1.344-3-3V10c0-4.406 3.594-8 8-8h1c.547 0 1 .453 1 1v2c0 .547-.453 1-1 1h-1c-2.203 0-4 1.797-4 4v.5a1.5 1.5 0 001.5 1.5H23c1.656 0 3 1.344 3 3z"/></symbol><symbol id="ut-quote-right" viewBox="0 0 26 28"><path d="M12 5v11c0 4.406-3.594 8-8 8H3c-.547 0-1-.453-1-1v-2c0-.547.453-1 1-1h1c2.203 0 4-1.797 4-4v-.5A1.5 1.5 0 006.5 14H3c-1.656 0-3-1.344-3-3V5c0-1.656 1.344-3 3-3h6c1.656 0 3 1.344 3 3zm14 0v11c0 4.406-3.594 8-8 8h-1c-.547 0-1-.453-1-1v-2c0-.547.453-1 1-1h1c2.203 0 4-1.797 4-4v-.5a1.5 1.5 0 00-1.5-1.5H17c-1.656 0-3-1.344-3-3V5c0-1.656 1.344-3 3-3h6c1.656 0 3 1.344 3 3z"/></symbol><symbol id="ut-rss-square" viewBox="0 0 24 28"><path d="M8 20c0-1.109-.891-2-2-2s-2 .891-2 2 .891 2 2 2 2-.891 2-2zm5.484 1.469a9.468 9.468 0 00-8.953-8.953c-.141-.016-.281.047-.375.141S4 12.876 4 13.016v2c0 .266.203.484.469.5 3.203.234 5.781 2.812 6.016 6.016a.498.498 0 00.5.469h2c.141 0 .266-.063.359-.156s.156-.234.141-.375zm6 .015C19.218 13.359 12.64 6.781 4.515 6.515a.38.38 0 00-.359.141.508.508 0 00-.156.359v2c0 .266.219.484.484.5 6.484.234 11.766 5.516 12 12a.51.51 0 00.5.484h2a.509.509 0 00.359-.156.4.4 0 00.141-.359zM24 6.5v15c0 2.484-2.016 4.5-4.5 4.5h-15A4.502 4.502 0 010 21.5v-15C0 4.016 2.016 2 4.5 2h15C21.984 2 24 4.016 24 6.5z"/></symbol><symbol id="ut-search" viewBox="0 0 26 28"><path d="M18 13c0-3.859-3.141-7-7-7s-7 3.141-7 7 3.141 7 7 7 7-3.141 7-7zm8 13c0 1.094-.906 2-2 2a1.96 1.96 0 01-1.406-.594l-5.359-5.344a10.971 10.971 0 01-6.234 1.937c-6.078 0-11-4.922-11-11s4.922-11 11-11 11 4.922 11 11c0 2.219-.672 4.406-1.937 6.234l5.359 5.359c.359.359.578.875.578 1.406z"/></symbol><symbol id="ut-share-alt" viewBox="0 0 24 28"><path d="M19 16c2.766 0 5 2.234 5 5s-2.234 5-5 5-5-2.234-5-5a6.3 6.3 0 01.031-.531l-5.625-2.812A4.994 4.994 0 010 14.001a4.994 4.994 0 018.406-3.656l5.625-2.812A5.907 5.907 0 0114 7.002c0-2.766 2.234-5 5-5s5 2.234 5 5a4.994 4.994 0 01-8.406 3.656L9.969 13.47c.016.172.031.359.031.531s-.016.359-.031.531l5.625 2.812A5.005 5.005 0 0119 16z"/></symbol><symbol id="ut-slack" viewBox="0 0 26 28"><path d="M23.734 12.125c1.281 0 2.266.938 2.266 2.219 0 1-.516 1.703-1.453 2.031l-2.688.922.875 2.609c.078.234.109.484.109.734 0 1.234-1 2.266-2.234 2.266a2.271 2.271 0 01-2.172-1.547l-.859-2.578-4.844 1.656.859 2.562c.078.234.125.484.125.734 0 1.219-1 2.266-2.25 2.266a2.25 2.25 0 01-2.156-1.547l-.859-2.547-2.391.828c-.25.078-.516.141-.781.141-1.266 0-2.219-.938-2.219-2.203 0-.969.625-1.844 1.547-2.156l2.438-.828-1.641-4.891-2.438.844c-.25.078-.5.125-.75.125-1.25 0-2.219-.953-2.219-2.203 0-.969.625-1.844 1.547-2.156l2.453-.828-.828-2.484a2.337 2.337 0 01-.125-.734c0-1.234 1-2.266 2.25-2.266a2.25 2.25 0 012.156 1.547l.844 2.5L13.14 5.5 12.296 3a2.337 2.337 0 01-.125-.734c0-1.234 1.016-2.266 2.25-2.266.984 0 1.859.625 2.172 1.547l.828 2.516 2.531-.859c.219-.063.438-.094.672-.094 1.219 0 2.266.906 2.266 2.156 0 .969-.75 1.781-1.625 2.078l-2.453.844 1.641 4.937 2.562-.875a2.32 2.32 0 01.719-.125zm-12.406 4.094l4.844-1.641-1.641-4.922-4.844 1.672z"/></symbol><symbol id="ut-snapchat" viewBox="0 0 26 28"><path d="M13.25 2c2.812-.031 5.141 1.547 6.312 4.078.359.766.422 1.953.422 2.797 0 1-.078 1.984-.141 2.984.125.063.297.109.438.109.562 0 1.031-.422 1.594-.422.531 0 1.297.375 1.297 1 0 1.5-3.141 1.219-3.141 2.531 0 .234.094.453.187.672.75 1.641 2.172 3.219 3.859 3.922.406.172.812.266 1.25.359a.527.527 0 01.438.547c0 1.062-2.703 1.5-3.422 1.609-.313.484-.078 1.625-.906 1.625-.641 0-1.281-.203-1.969-.203-.328 0-.656.016-.969.078-1.859.313-2.484 2.312-5.531 2.312-2.938 0-3.641-2-5.453-2.312a5.183 5.183 0 00-.984-.078c-.703 0-1.375.234-1.937.234-.875 0-.609-1.156-.938-1.656-.719-.109-3.422-.547-3.422-1.609 0-.281.156-.484.438-.547.438-.094.844-.187 1.25-.359 1.672-.688 3.125-2.281 3.859-3.922.094-.219.187-.438.187-.672 0-1.313-3.156-1.062-3.156-2.516 0-.609.719-1 1.266-1 .484 0 .969.406 1.578.406.172 0 .344-.031.5-.109-.063-.984-.141-1.969-.141-2.969 0-.844.063-2.047.422-2.812C7.812 3.108 10.14 2.03 13.25 1.999z"/></symbol><symbol id="ut-ticket" viewBox="0 0 28 28"><path d="M16 7.063L20.937 12 12 20.937 7.063 16zm-3.297 15.296l9.656-9.656a.99.99 0 000-1.406l-5.656-5.656a1.02 1.02 0 00-1.406 0l-9.656 9.656a.99.99 0 000 1.406l5.656 5.656c.187.187.438.281.703.281s.516-.094.703-.281zm13.891-9.953L12.422 26.593c-.781.766-2.063.766-2.828 0l-1.969-1.969c1.172-1.172 1.172-3.078 0-4.25s-3.078-1.172-4.25 0l-1.953-1.969c-.781-.766-.781-2.047 0-2.828L15.594 1.421c.766-.781 2.047-.781 2.828 0l1.953 1.953c-1.172 1.172-1.172 3.078 0 4.25s3.078 1.172 4.25 0l1.969 1.953c.766.781.766 2.063 0 2.828z"/></symbol><symbol id="ut-twitter" viewBox="0 0 26 28"><path d="M25.312 6.375a10.85 10.85 0 01-2.531 2.609c.016.219.016.438.016.656 0 6.672-5.078 14.359-14.359 14.359-2.859 0-5.516-.828-7.75-2.266.406.047.797.063 1.219.063 2.359 0 4.531-.797 6.266-2.156a5.056 5.056 0 01-4.719-3.5c.313.047.625.078.953.078.453 0 .906-.063 1.328-.172a5.048 5.048 0 01-4.047-4.953v-.063a5.093 5.093 0 002.281.641 5.044 5.044 0 01-2.25-4.203c0-.938.25-1.797.688-2.547a14.344 14.344 0 0010.406 5.281 5.708 5.708 0 01-.125-1.156 5.045 5.045 0 015.047-5.047 5.03 5.03 0 013.687 1.594 9.943 9.943 0 003.203-1.219 5.032 5.032 0 01-2.219 2.781c1.016-.109 2-.391 2.906-.781z"/></symbol><symbol id="ut-wheelchair" viewBox="0 0 24 28"><path d="M22.469 12.703c.328.344.5.812.453 1.281l-.688 8.609a1.666 1.666 0 01-1.656 1.531c-.047 0-.094 0-.141-.016-.922-.063-1.594-.875-1.531-1.781l.547-6.703-2.234.125a8.582 8.582 0 01.859 3.75c0 2.25-.875 4.297-2.312 5.812l-2.141-2.141a5.489 5.489 0 001.422-3.672c0-3.031-2.453-5.484-5.469-5.484a5.465 5.465 0 00-3.687 1.437L3.75 13.295a8.425 8.425 0 014.438-2.203l4.125-4.688-2.328-1.359-2.828 2.516c-.688.625-1.734.562-2.344-.125s-.547-1.734.125-2.344l3.734-3.328a1.623 1.623 0 011.937-.187c7.609 4.422 7.625 4.422 7.625 4.422.406.234.641.641.75 1.062a2.025 2.025 0 01-.406 1.828l-3.203 3.625 5.797-.313c.484-.031.953.141 1.297.5zm-3.094-7.14a2.777 2.777 0 01-2.781-2.781A2.787 2.787 0 0119.375.001a2.79 2.79 0 012.797 2.781 2.78 2.78 0 01-2.797 2.781zM9.578 24.969a5.467 5.467 0 003.063-.953l2.172 2.172a8.401 8.401 0 01-5.234 1.813c-4.703 0-8.516-3.813-8.516-8.5 0-1.984.672-3.797 1.813-5.25l2.172 2.172a5.464 5.464 0 00-.938 3.078 5.475 5.475 0 005.469 5.469z"/></symbol><symbol id="ut-youtube" viewBox="0 0 28 28"><path d="M11.109 17.625l7.562-3.906-7.562-3.953v7.859zM14 4.156c5.891 0 9.797.281 9.797.281.547.063 1.75.063 2.812 1.188 0 0 .859.844 1.109 2.781.297 2.266.281 4.531.281 4.531v2.125s.016 2.266-.281 4.531c-.25 1.922-1.109 2.781-1.109 2.781-1.062 1.109-2.266 1.109-2.812 1.172 0 0-3.906.297-9.797.297-7.281-.063-9.516-.281-9.516-.281-.625-.109-2.031-.078-3.094-1.188 0 0-.859-.859-1.109-2.781C-.016 17.327 0 15.062 0 15.062v-2.125s-.016-2.266.281-4.531C.531 6.469 1.39 5.625 1.39 5.625 2.452 4.5 3.656 4.5 4.202 4.437c0 0 3.906-.281 9.797-.281z"/></symbol><symbol id="ut-calendar" viewBox="0 0 16 16"><path d="M4.5 6h2v2h-2V6zm3 0h2v2h-2V6zm3 0h2v2h-2V6zm-9 6h2v2h-2v-2zm3 0h2v2h-2v-2zm3 0h2v2h-2v-2zm-3-3h2v2h-2V9zm3 0h2v2h-2V9zm3 0h2v2h-2V9zm-9 0h2v2h-2V9zm11-9v1h-2V0h-7v1h-2V0h-2v16h15V0h-2zm1 15H.5V4h13v11z"/></symbol><symbol id="ut-location" viewBox="0 0 16 16"><path d="M8 0C5.2 0 3 2.2 3 5c0 5 5 11 5 11s5-6 5-11c0-2.8-2.2-5-5-5zm0 8C6.3 8 5 6.7 5 5s1.3-3 3-3 3 1.3 3 3-1.3 3-3 3z"/></symbol></defs></svg>