<svg xmlns="http://www.w3.org/2000/svg" width="310" height="48"><path fill="#333F48" fill-rule="evenodd" d="M7.51 1.798l9.751-.147c2.483 0 4.728.351 6.738 1.053 2.009.703 3.707 1.74 5.096 3.112 1.388 1.372 2.458 3.07 3.209 5.096.751 2.025 1.127 4.345 1.127 6.958 0 5.325-1.38 9.522-4.14 12.593-2.76 3.07-6.934 4.933-12.52 5.586l-9.261-.147-6.615.147-.245-1.715 4.41-.637V4.003L.65 3.366l.245-1.715 6.615.147zm2.695 2.205v29.351l6.125.49c1.699 0 3.25-.367 4.655-1.102 1.405-.736 2.605-1.773 3.602-3.112.996-1.34 1.772-2.948 2.327-4.826.555-1.879.833-3.978.833-6.297 0-2.058-.27-3.985-.808-5.782-.54-1.797-1.34-3.356-2.401-4.68-1.062-1.323-2.393-2.368-3.994-3.135-1.6-.768-3.463-1.152-5.586-1.152l-4.753.245zm31.703 19.502c0 1.405.18 2.687.539 3.847.36 1.16.89 2.164 1.592 3.013a7.33 7.33 0 002.573 1.985c1.013.473 2.156.71 3.43.71.98 0 2.017-.204 3.111-.613a17.741 17.741 0 003.014-1.445l.784 1.862c-1.176.817-2.507 1.552-3.993 2.205a37.388 37.388 0 01-4.582 1.666 11.87 11.87 0 01-4.263-.784 10.482 10.482 0 01-3.602-2.279c-1.029-.996-1.853-2.237-2.474-3.723-.62-1.487-.931-3.194-.931-5.121 0-1.797.261-3.397.784-4.802.523-1.405 1.266-2.621 2.23-3.65.963-1.03 2.131-1.887 3.503-2.573 1.372-.686 2.891-1.209 4.557-1.568 1.6 0 2.956.237 4.067.71 1.11.474 2.009 1.127 2.695 1.96.686.834 1.176 1.813 1.47 2.94a14.23 14.23 0 01.441 3.602v2.058H41.908zm9.849-2.45c0-.947-.057-1.813-.171-2.597-.115-.784-.335-1.454-.662-2.009a3.393 3.393 0 00-1.372-1.299c-.588-.31-1.356-.465-2.303-.465-1.503 0-2.711.629-3.626 1.886-.915 1.258-1.47 2.916-1.666 4.974l9.8-.49zm21.609-5.341c-.261-.163-.727-.384-1.397-.662-.67-.277-1.445-.416-2.327-.416-.947 0-1.805.245-2.572.735-.768.49-1.152 1.209-1.152 2.156 0 .784.294 1.454.882 2.009.588.555 1.437 1.11 2.548 1.666l3.773 1.911c1.666.85 2.85 1.764 3.553 2.744.702.98 1.053 2.172 1.053 3.577 0 1.11-.212 2.058-.637 2.842-.425.784-1.037 1.454-1.838 2.009-.8.555-1.772 1.029-2.915 1.421a32.094 32.094 0 01-3.822 1.029c-.751 0-1.503-.082-2.254-.245a17.872 17.872 0 01-2.107-.588 21.489 21.489 0 01-1.788-.71 13.278 13.278 0 01-1.299-.662l-.931-5.537h3.136l1.666 4.067c.523.36 1.127.653 1.813.882a6.93 6.93 0 002.205.343c1.307 0 2.287-.36 2.94-1.078.653-.719.98-1.6.98-2.646 0-.947-.278-1.699-.833-2.254-.555-.555-1.47-1.16-2.744-1.813l-3.871-2.009a9.422 9.422 0 01-1.519-.956 8.14 8.14 0 01-1.323-1.273 5.855 5.855 0 01-.931-1.569 5.035 5.035 0 01-.343-1.886c0-1.731.76-3.103 2.279-4.116 1.519-1.013 3.715-1.83 6.59-2.45 1.34 0 2.646.237 3.92.71 1.274.474 2.27.972 2.989 1.495v4.9h-2.597l-1.127-3.626zM86.89 35.902l-5.635.147-.245-1.715 3.43-.49V15.959l-3.43.294-.245-1.715 5.88-1.519 2.45-.196v21.021l3.675.49-.245 1.715-5.635-.147zM84.44 2.19l3.528-.245 1.372.245.245 2.744-.539 2.352-3.479.294-1.323-.294-.294-2.744.49-2.352zm25.284 19.012c0-.62-.073-1.323-.22-2.107a7.399 7.399 0 00-.785-2.205 5.005 5.005 0 00-1.543-1.715c-.653-.457-1.486-.686-2.499-.686-1.34 0-2.368.474-3.087 1.421-.719.947-1.078 2.205-1.078 3.773 0 .588.073 1.241.22 1.96a6.32 6.32 0 00.784 2.009 4.88 4.88 0 001.544 1.568c.653.425 1.486.637 2.499.637 1.34 0 2.368-.416 3.087-1.25.719-.833 1.078-1.968 1.078-3.405zm-8.232 15.533a27.67 27.67 0 00-1.47 1.74c-.36.473-.629.873-.809 1.2-.18.327-.293.596-.342.809-.05.212-.074.4-.074.563 0 1.143.604 2.107 1.813 2.891 1.209.784 2.826 1.176 4.851 1.176a8.718 8.718 0 002.867-.465 8.429 8.429 0 002.376-1.25 5.849 5.849 0 001.617-1.862 4.736 4.736 0 00.588-2.303c0-.882-.36-1.519-1.078-1.911-.719-.392-1.911-.588-3.577-.588h-6.762zm3.92-24.5c1.6 0 3.046.261 4.337.784 1.29.523 2.327 1.258 3.111 2.205l2.646-2.989h2.94v3.969h-2.94l-1.617.784c.327.817.49 1.6.49 2.352 0 2.09-.751 3.871-2.254 5.341-1.503 1.47-3.936 2.63-7.301 3.479h-1.004c-.31 0-.613-.033-.907-.098l-2.646 3.038c0 .523.171.94.514 1.25.344.31.809.465 1.397.465h8.967c2.254 0 3.887.465 4.9 1.397 1.013.93 1.519 2.147 1.519 3.65 0 1.013-.302 2-.906 2.965-.605.963-1.462 1.886-2.573 2.768-1.11.882-2.425 1.699-3.944 2.45-1.52.751-3.21 1.405-5.072 1.96-7.121 0-10.682-2.254-10.682-6.762v-.833l5.341-4.116c-.85-.327-1.519-.67-2.009-1.029-.49-.36-.857-.743-1.102-1.151a3.485 3.485 0 01-.466-1.348 11.878 11.878 0 01-.098-1.568v-.294l4.9-3.381c-1.568-.555-2.81-1.388-3.724-2.499-.915-1.11-1.372-2.434-1.372-3.969 0-2.09.751-3.871 2.254-5.341 1.503-1.47 3.936-2.63 7.301-3.479zm20.874 23.667l-5.635.147-.245-1.715 3.43-.49V15.959l-3.43.294-.245-1.715 5.88-1.519 2.107-.147.245 4.116 7.252-4.753c1.568 0 2.834.139 3.797.417.964.277 1.7.734 2.206 1.372.506.637.849 1.461 1.029 2.474.18 1.013.269 2.254.269 3.724v13.622l3.724.49-.245 1.715-5.635-.147-4.704.147-.245-1.715 2.45-.49V19.83c0-1.274-.278-2.205-.833-2.793-.555-.588-1.356-.882-2.401-.882-.85 0-1.699.229-2.548.686-.85.457-1.699.964-2.548 1.519l-1.47.98v14.504l2.695.49-.245 1.715-4.655-.147zm40.082-4.802c.751.915 1.748 1.658 2.989 2.23a9.263 9.263 0 003.92.857c2.123 0 3.765-.588 4.925-1.764 1.16-1.176 1.739-2.662 1.739-4.459 0-1.666-.482-3.005-1.446-4.018-.963-1.013-2.18-1.846-3.65-2.499l-5.929-2.597a22.488 22.488 0 01-2.499-1.299 8.56 8.56 0 01-2.034-1.69 7.863 7.863 0 01-1.371-2.254c-.344-.85-.515-1.813-.515-2.891 0-1.34.294-2.54.882-3.601.588-1.062 1.396-2.001 2.425-2.818 1.03-.817 2.263-1.51 3.7-2.082a28.906 28.906 0 014.704-1.397c1.568 0 3.144.245 4.728.735 1.585.49 2.998 1.192 4.239 2.107v6.615h-2.45l-1.421-4.459a9.956 9.956 0 00-2.279-1.69c-.865-.474-2.033-.711-3.503-.711-1.96 0-3.479.482-4.557 1.446-1.078.963-1.617 2.278-1.617 3.944 0 1.372.425 2.49 1.274 3.357.85.865 1.96 1.592 3.332 2.18l5.635 2.45c.98.425 1.903.898 2.768 1.421a10.295 10.295 0 012.304 1.886 8.2 8.2 0 011.567 2.524c.376.947.564 2.042.564 3.283 0 1.143-.212 2.27-.637 3.381-.425 1.11-1.119 2.148-2.083 3.111-.963.964-2.237 1.83-3.822 2.597-1.584.768-3.52 1.397-5.806 1.887-2.254 0-4.181-.294-5.782-.882a15.469 15.469 0 01-4.361-2.45l-1.078-6.615h3.43l1.715 4.165zm22.393 16.415v-4.9h4.214l4.851-7.399-1.96.588-7.987-20.678-3.038-.49.245-1.715 5.635.147 5.145-.147.245 1.715-3.234.49 5.194 14.357.392 3.381 5.831-17.738-2.254-.49.245-1.715 4.312.147 4.067-.147.245 1.715-3.136.49-7.693 20.041-5.488 12.348h-5.831zm35.623-31.801c-.261-.163-.727-.384-1.396-.662-.67-.277-1.446-.416-2.328-.416-.947 0-1.805.245-2.572.735-.768.49-1.152 1.209-1.152 2.156 0 .784.294 1.454.882 2.009.588.555 1.437 1.11 2.548 1.666l3.773 1.911c1.666.85 2.85 1.764 3.552 2.744.703.98 1.054 2.172 1.054 3.577 0 1.11-.212 2.058-.637 2.842-.425.784-1.037 1.454-1.838 2.009-.8.555-1.772 1.029-2.915 1.421a32.094 32.094 0 01-3.822 1.029c-.751 0-1.503-.082-2.254-.245a17.872 17.872 0 01-2.107-.588 21.489 21.489 0 01-1.788-.71 13.278 13.278 0 01-1.299-.662l-.931-5.537h3.136l1.666 4.067c.523.36 1.127.653 1.813.882a6.93 6.93 0 002.205.343c1.307 0 2.287-.36 2.94-1.078.653-.719.98-1.6.98-2.646 0-.947-.278-1.699-.833-2.254-.555-.555-1.47-1.16-2.744-1.813l-3.871-2.009a9.422 9.422 0 01-1.519-.956 8.14 8.14 0 01-1.323-1.273 5.855 5.855 0 01-.931-1.569 5.035 5.035 0 01-.343-1.886c0-1.731.76-3.103 2.278-4.116 1.52-1.013 3.716-1.83 6.591-2.45 1.34 0 2.646.237 3.92.71 1.274.474 2.27.972 2.989 1.495v4.9h-2.597l-1.127-3.626zm5.929.049v-.833l1.715-1.715h3.185V10.03l3.185-3.185h1.274v6.713h7.399v2.205h-7.35V30.12c0 .36.04.71.123 1.053.081.344.22.654.416.932a2.3 2.3 0 00.784.686c.327.18.751.269 1.274.269.719 0 1.372-.106 1.96-.319a15.531 15.531 0 001.911-.857l.833 1.666-5.733 3.185c-1.372 0-2.466-.122-3.283-.367-.817-.246-1.445-.63-1.887-1.152-.44-.523-.726-1.184-.857-1.985-.13-.8-.196-1.755-.196-2.866V15.763h-4.753zm22.246 7.742c0 1.405.18 2.687.539 3.847.36 1.16.89 2.164 1.592 3.013a7.33 7.33 0 002.573 1.985c1.013.473 2.156.71 3.43.71.98 0 2.017-.204 3.112-.613a17.741 17.741 0 003.013-1.445l.784 1.862c-1.176.817-2.507 1.552-3.993 2.205a37.388 37.388 0 01-4.582 1.666 11.87 11.87 0 01-4.263-.784 10.482 10.482 0 01-3.602-2.279c-1.029-.996-1.853-2.237-2.474-3.723-.62-1.487-.931-3.194-.931-5.121 0-1.797.261-3.397.784-4.802.523-1.405 1.266-2.621 2.23-3.65.963-1.03 2.131-1.887 3.503-2.573 1.372-.686 2.891-1.209 4.557-1.568 1.6 0 2.956.237 4.067.71 1.11.474 2.009 1.127 2.695 1.96.686.834 1.176 1.813 1.47 2.94a14.23 14.23 0 01.441 3.602v2.058h-14.945zm9.849-2.45c0-.947-.057-1.813-.172-2.597-.114-.784-.334-1.454-.661-2.009a3.393 3.393 0 00-1.372-1.299c-.588-.31-1.356-.465-2.303-.465-1.503 0-2.711.629-3.626 1.886-.915 1.258-1.47 2.916-1.666 4.974l9.8-.49zm41.699 14.847l-4.655.147-.245-1.715 2.45-.49V19.83c0-1.274-.253-2.205-.76-2.793-.506-.588-1.2-.882-2.082-.882-.751 0-1.56.212-2.425.637-.866.425-1.724.947-2.573 1.568l-1.47 1.029v14.455l2.205.49-.245 1.715-4.165-.147-4.41.147-.245-1.715 2.205-.49V19.83c0-1.274-.253-2.205-.76-2.793-.506-.588-1.2-.882-2.082-.882-.751 0-1.56.212-2.425.637-.866.425-1.724.947-2.573 1.568l-1.47 1.029v14.455l2.45.49-.245 1.715-4.41-.147-5.635.147-.245-1.715 3.43-.49V15.959l-3.43.294-.245-1.715 5.88-1.519 2.107-.147.245 4.067 6.762-4.704c2.385 0 4.091.376 5.12 1.127 1.03.751 1.675 1.976 1.936 3.675l6.909-4.802c1.568 0 2.834.155 3.797.466.964.31 1.7.808 2.206 1.494.506.686.849 1.568 1.029 2.646.18 1.078.269 2.401.269 3.969v13.034l3.675.49-.245 1.715-5.635-.147z"/></svg>