<svg width="474" height="54" xmlns="http://www.w3.org/2000/svg"><path d="M41.9 1.5h-.1v17.7c0 6.5-.6 15-5.7 22.4-1 1.5-2.2 2.9-3.6 4.3-2.8 2.6-6.4 5.1-11.6 8-5.2-2.9-8.9-5.4-11.6-8-1.4-1.4-2.6-2.8-3.6-4.3C.6 34.2 0 25.7 0 19.2V1.5l.9-.1C1 1.4 12.2 0 21 0c8.7 0 19.9 1.4 20 1.4l.9.1zm-7.3 39.1c4.7-7 5.4-15 5.2-21.3l-19-1.1-19 1.1c0 6.3.7 14.4 5.4 21.3 1 1.5 2.1 2.8 3.5 4.1 4.2 3.8 8.9 5.9 10.2 6.5 1.3-.5 6-2.7 10.2-6.5 1.4-1.3 2.5-2.7 3.5-4.1zM2.9 3.1L2 17h37.9l-1-13.9c-3.5-.4-11.5-1.2-18-1.2s-14.5.8-18 1.2zm28.8 4.5V9h-.9v2h.9v1.4h-.9v2.7h-.6c-1.4 0-2.7-.2-4-.4-1.1-.1-2.1-.3-3-.3-.8 0-1.3.1-1.7.3h-1.2c-.5-.2-1-.3-1.7-.3-.9 0-1.9.1-3 .3-1.3.2-2.6.4-4 .4H11v-2.7h-.9V11h.9V9h-.9V7.6h.9V5.1h.6c1.3 0 2.6-.2 3.8-.4 1.2-.1 2.2-.3 3.2-.3.9 0 1.7.1 2.3.4.6-.3 1.4-.4 2.3-.4 1 0 2.1.1 3.2.3 1.3.2 2.5.4 3.8.4h.6v2.5h.9zm-5.3 5.9c1 .2 2 .3 3.1.3l-.3-7.6c-1 0-2-.2-2.9-.3-1.1-.2-2.1-.3-3-.3-.7 0-1.3.1-1.7.3v1l.2 6.4c.4 0 .9-.1 1.4-.1 1 0 2.1.1 3.2.3zm-10.9 0c1.2-.2 2.2-.3 3.2-.1.5 0 1 0 1.4.1l.2-6.4V6c-.5-.2-1-.3-1.7-.3-.9 0-1.9.1-3 .3-.9.1-1.9.2-2.9.3l-.3 7.6c1.1-.1 2.1-.2 3.1-.4zm.2-6.5h-.1v1c-.6.1-1.2.2-1.8.2v-1c.6 0 1.1-.1 1.7-.2h.2zm.7-.1c1-.1 2-.2 2.8-.2v1c-.8 0-1.8.1-2.8.2v-1zm-.7 4.5v1l-2.1.3v-1c.7-.1 1.3-.2 1.9-.3h.2zm.7-.1c.9-.1 1.8-.2 2.6-.2v1c-.8 0-1.6.1-2.6.2v-1zm-.9-2.1c1.3-.1 2.5-.3 3.6-.3v1c-1-.1-2.2.1-3.5.3h-.1v-1zm-.7.1v1c-.3 0-.7.1-1.1.1v-1c.4 0 .7 0 1.1-.1zM25 6.9h-.1v1c-.8-.1-1.6-.2-2.3-.1v-1c.8-.1 1.6 0 2.4.1zm3.1.4l.1 1.1c-.6-.1-1.3-.2-1.9-.3-.2-.1-.3-.1-.5-.1V7h.6c.6.1 1.1.2 1.7.3zM24.8 9v1c-.8-.1-1.5-.1-2.1-.1v-1c.7 0 1.4 0 2.1.1zm3.4.5l.1 1.1c-.7-.1-1.4-.2-2-.3-.3 0-.5-.1-.7-.1v-1c.3 0 .5.1.8.1.6 0 1.2.1 1.8.2zm-1.9 2.9v-1h.1c.6.1 1.3.2 1.9.3v1c-.7-.1-1.3-.2-2-.3zm-.7-1.1v1c-1-.1-1.9-.2-2.7-.2v-1c.8 0 1.7.1 2.7.2zM12.1 25.8c-.1 0-.1-.1 0 0-.1-.1 0-.1 0 0l6.8-.1 2.1-6.4v-.1.1l1.9 6.4h6.8v.1l-5.4 4 2.1 6.4v.1l-5.5-4-5.5 4 2.1-6.5-5.4-4zm7.6 1.1l-3.5.2 2.6 2.2-.8 3.3 2.9-1.8 2.9 1.8-.8-3.3 2.7-2.2-3.4-.2-1.3-3.1-1.3 3.1zm14.8 3.5h-.3c-.1.4-.2.8-.3 1.1.6-.4 1.4-.6 2.1-.7h.5v.5c0 1.2-.4 2.3-1.2 3.2-.8.9-1.8 1.4-3 1.5h-.5c-.1.4-.3.7-.5 1 .5-.2 1-.3 1.6-.3h.6l.5.1-.1.5c-.2 1.1-.9 2.1-1.8 2.8-.8.6-1.7.9-2.7.9h-.6l-.5-.1c-.2.3-.4.6-.7.9.7-.1 1.5 0 2.2.2l.8.2-.2.5c-.5 1.1-1.3 1.9-2.4 2.4-.6.3-1.3.4-1.9.4-.5 0-1-.1-1.5-.3l-.4-.1c-.6.6-1.3 1.1-2.2 1.7.4.3.9.6 1.4.9l-.9.6c-.5-.3-1-.6-1.4-.9-.4.3-.9.6-1.4.9l-.9-.6c.5-.3 1-.6 1.4-.9-.9-.7-1.6-1.2-2.2-1.7l-.4.1c-.5.2-1 .3-1.5.3-.7 0-1.3-.1-1.9-.4-1.1-.5-1.9-1.3-2.4-2.4l-.2-.5.5-.2c.7-.2 1.5-.3 2.2-.2-.3-.3-.5-.6-.7-.9l-.5.1h-.6c-1 0-1.9-.3-2.7-.9-.9-.6-1.6-1.6-1.8-2.8l-.1-.4.5-.1H9c.6 0 1.1.1 1.6.3-.2-.3-.4-.7-.5-1h-.5c-1.1-.1-2.2-.6-3-1.5-.8-.9-1.2-2-1.2-3.2v-.5h.5c.8.1 1.5.3 2.1.7-.2-.4-.3-.7-.3-1.1l-.4-.1c-1.1-.4-2-1.1-2.6-2.1-.6-1-.8-2.2-.5-3.3l.1-.4.5.1c.5.2 1 .4 1.5.8-.1-.6-.1-1.1 0-1.7.2-1.1.9-2.1 1.8-2.8l.4-.3.3.4c.6 1 .8 2.1.6 3.3-.2 1.1-.9 2.1-1.8 2.8.2.4.3.8.4 1.2.3-.8.8-1.5 1.4-2l.4-.3.3.4c.7 1 .9 2.1.8 3.3-.1 1.2-.7 2.3-1.6 3 .2.4.5.8.6 1.2.2-.8.5-1.5 1-2.2l.3-.4.4.3c.9.8 1.4 1.8 1.5 3 .1 1.1-.3 2.3-1 3.2.4.3.7.6.9 1 0-.8.1-1.7.5-2.4l.2-.5.4.3c1 .6 1.8 1.6 2.1 2.7.3 1.2.2 2.4-.3 3.4.3.2.7.5 1 .8-.2-.8-.2-1.6 0-2.4l.1-.5.3.2c1.1.4 2 1.2 2.6 2.2.5 1 .7 2.1.4 3.2.2.1.3.2.5.3.2-.1.4-.2.5-.3-.3-1.1-.1-2.2.4-3.2.6-1.1 1.5-1.8 2.6-2.2l.5-.2.1.5c.2.8.2 1.6 0 2.4.3-.3.6-.6 1-.8-.5-1.1-.6-2.3-.3-3.4.4-1.2 1.1-2.1 2.1-2.7l.4-.3.2.5c.4.8.6 1.6.5 2.4.3-.4.6-.7.9-1-.7-.9-1.1-2-1-3.2.1-1.1.6-2.2 1.5-3l.4-.3.3.4c.6.6.9 1.4 1 2.2.1-.4.3-.8.6-1.2-.9-.8-1.4-1.8-1.6-3-.2-1.2.1-2.4.8-3.3l.3-.4.5.2c.6.6 1.1 1.2 1.4 2 0-.4.1-.8.3-1.2-.9-.7-1.6-1.7-1.8-2.8-.2-1.1 0-2.3.6-3.3l.3-.4.4.3c.9.6 1.6 1.7 1.8 2.8.1.6.1 1.1 0 1.7.4-.4.9-.6 1.5-.8l.5-.1.1.5c.3 1.1.1 2.3-.5 3.3-.5 1-1.5 1.8-2.6 2.1zm0 3.5c.5-.6.8-1.3.9-1.9-.7.2-1.3.6-1.8 1.1-.5.5-.8 1.2-.9 1.9.7-.2 1.3-.6 1.8-1.1zm-2.7-4.3c.1.7.4 1.4.9 1.9.4-.6.5-1.4.4-2.1-.1-.7-.4-1.4-.9-1.9-.4.6-.5 1.4-.4 2.1zm1.5-5.5c.1.7.5 1.4 1 1.9.3-.6.3-1.4.2-2.1-.1-.7-.5-1.4-1-1.9-.3.6-.3 1.4-.2 2.1zm3.5 1.6c-.7.3-1.2.8-1.6 1.4-.4.7-.6 1.4-.5 2.1.7-.3 1.2-.7 1.6-1.4.4-.7.6-1.4.5-2.1zm-5.4 13.7c.6-.4 1.1-1 1.3-1.7-.7 0-1.4.3-2 .7-.6.4-1.1 1-1.3 1.7.7 0 1.4-.3 2-.7zm-1.7-4.7c0 .8.1 1.5.5 2.1.5-.6.7-1.3.8-2 0-.8-.1-1.5-.5-2.1-.5.6-.7 1.3-.8 2zm-1.9 4.9c.2-.7.2-1.4 0-2.1-.6.5-1 1.1-1.2 1.8-.2.7-.2 1.4 0 2.1.6-.5 1-1.1 1.2-1.8zm1.1 3.2c-.7-.1-1.4-.1-2.1.2-.7.3-1.2.8-1.6 1.4.2.1.4.1.6.1.5 0 1-.1 1.5-.3.7-.3 1.2-.8 1.6-1.4zm-6.3.3c-.3.6-.4 1.4-.4 2.1.6-.3 1.2-.9 1.5-1.5.3-.7.5-1.4.4-2.1-.6.3-1.1.9-1.5 1.5zm-8.1 1.1c.7.3 1.4.4 2.1.3-.4-.6-.9-1.1-1.6-1.4-.7-.3-1.4-.4-2.1-.3.4.6.9 1.1 1.6 1.4zm-.5-4.6c.2.7.6 1.4 1.2 1.8.2-.7.2-1.4 0-2.1-.2-.7-.6-1.3-1.2-1.8-.2.7-.2 1.4 0 2.1zm3.7 2c-.1.7 0 1.4.4 2.1.3.6.9 1.2 1.5 1.5.1-.7-.1-1.5-.4-2.1-.3-.6-.9-1.2-1.5-1.5zm-7.3-2.2c.6.4 1.3.7 2 .7-.3-.7-.7-1.3-1.3-1.7-.6-.4-1.3-.7-2-.7.3.7.7 1.3 1.3 1.7zm.9-6.7c-.3.7-.5 1.4-.5 2.1.1.7.3 1.4.8 2 .4-.6.6-1.4.5-2.1-.1-.7-.3-1.4-.8-2zm-3.9 1.2c.5.5 1.1.9 1.8 1.1-.1-.7-.4-1.4-.9-1.9-.5-.6-1.1-.9-1.8-1.1.1.7.4 1.4.9 1.9zm-.3-4.7c.1-.7-.1-1.4-.4-2.1-.4-.6-.9-1.1-1.6-1.4-.1.7 0 1.5.4 2.1.4.6.9 1.1 1.6 1.4zm.2-5.3c-.1.7-.1 1.4.2 2.1.5-.5.9-1.2 1-1.9.2-.7.1-1.4-.2-2.1-.5.5-.9 1.2-1 1.9zm1.5 5.6c-.1.7 0 1.4.4 2.1.5-.5.8-1.2.9-1.9.1-.7-.1-1.5-.4-2.1-.5.5-.8 1.2-.9 1.9zM81 36.1l-2.8.1-.2-1 1.5-.3v-8.6c0-1.6-.7-2.2-1.9-2.2-.9 0-2.1.7-3.2 1.4l-.9.6V35l1.6.3-.1 1-2.8-.1H69l-.1-1 1.8-.3V16.5l-1.1.2-6.1-.1v18.2l3.5.4-.2 1-4.9-.1-5 .1-.1-1 3.6-.4V16.6l-4.5.1-1.4 3.7h-1.2v-5.3l8.6.1 7.4-.1 3.2-.4h1v9.7l4.4-2.8c3.8 0 4.5 1.4 4.5 5.2v8l2.2.3-.1 1H81zm7.8-7.6c0 3.4 1.8 5.9 5 5.9 1.2 0 2.6-.6 3.8-1.3l.5 1.1c-1.4 1-3.3 1.8-5.2 2.4-3.6 0-6.9-2.6-6.9-7.3 0-4.4 2.7-6.8 6.8-7.7 4 0 5.3 2.5 5.3 5.6v1.3h-9.3zm6.1-1.5c0-2.3-.4-3.9-2.8-3.9-1.8 0-3 1.7-3.2 4.2l6-.3zm23.8-10.8l.1-1.1 3.8.1 3.5-.1.1 1.1-2.5.4v12.2c0 3.9-1.6 6.5-7.6 7.9-5.9 0-8-3.2-8-7.9V16.6l-2.7-.4.1-1.1 4.1.1 4.1-.1.1 1.1-2.5.4v12.6c0 3.7 1.6 5.8 5 5.8 3.1 0 4.9-2.1 4.9-5.9V16.6l-2.5-.4zm11.7 19.9l-3.4.1-.2-1 2.1-.3v-11l-2.1.2-.1-1.1 3.6-.9 1.3-.1.2 2.5 4.4-2.9c3.8 0 4.5 1.3 4.5 4.9v8.3l2.3.3-.1 1-3.5-.1-2.9.1-.1-1 1.5-.3v-8.6c0-1.6-.7-2.2-2-2.2-1 0-2.1.7-3.1 1.4l-.9.6v8.9l1.6.3-.2 1-2.9-.1zm17.2 0l-3.5.1-.1-1 2.1-.3v-11l-2.1.2-.1-1.1 3.6-.9 1.5-.1v12.9l2.2.3-.1 1-3.5-.1zm-1.5-20.6l2.2-.1.8.1.1 1.7-.3 1.4-2.1.2-.8-.2-.2-1.7.3-1.4zm13.5 18.7l3.6-10.9-1.4-.3.1-1 2.6.1 2.5-.1.1 1-1.9.3-4.9 12.3-2.2.9-5.2-13.2-1.9-.3.1-1 3.5.1 3.1-.1.1 1-2 .3 3.3 8.8.5 2.1zm10.6-5.7c0 3.4 1.8 5.9 5 5.9 1.2 0 2.6-.6 3.7-1.3l.5 1.1c-1.4 1-3.3 1.8-5.2 2.4-3.6 0-6.9-2.6-6.9-7.3 0-4.4 2.7-6.8 6.8-7.7 4 0 5.3 2.5 5.3 5.6v1.3h-9.2zm6.1-1.5c0-2.3-.4-3.9-2.8-3.9-1.8 0-3 1.7-3.2 4.2l6-.3zm9.8-1l3.4-4.2h2.4v3h-2.2c-.7.1-2 1.1-2.9 2.1l-.6.7v7.1l3.1.3-.1 1.1-4.3-.1-3.4.1-.1-1 2.1-.3V23.9l-2.1.2-.1-1.1 3.6-.9 1.2-.1v4zm15.3-2.3c-.3-.2-1.2-.7-2.3-.7-1.2 0-2.3.6-2.3 1.8 0 1 .8 1.6 2.1 2.2l2.3 1.2c2 1 2.8 2.2 2.8 3.9 0 2.7-2.2 3.7-5.6 4.5-1.8 0-3.8-.9-4.6-1.4l-.6-3.4h1.9l1 2.5c.6.4 1.5.8 2.5.8 1.6 0 2.4-1 2.4-2.3 0-1.2-.6-1.7-2.2-2.5l-2.4-1.2c-1.3-.7-2.5-1.8-2.5-3.5 0-2.1 2-3.3 5.4-4 1.6 0 3.4.7 4.2 1.3v3h-1.6l-.5-2.2zm8.3 12.4l-3.4.1-.2-1 2.1-.3v-11l-2.1.2-.1-1.1 3.6-.9 1.4-.1v12.9l2.2.3-.2 1-3.3-.1zm-1.5-20.6l2.2-.1.8.1.2 1.7-.3 1.4-2.1.2-.8-.2-.2-1.7.2-1.4zm16.3 27.7v-3h2.6l3-4.5-1.2.4-5-12.6h-4.5v9.1c0 .9.3 1.8 1.6 1.8.9 0 1.8-.4 2.6-.8l.5 1-3.8 2.1c-3.4 0-3.8-1.2-3.8-3.9v-8.9h-2.9v-.5l1-1h1.9v-2l2-1.9h.8v3.7h9.4l.2 1-2 .3 3.3 8.8.2 2.1 3.7-10.9-1.4-.3.2-1 2.6.1 2.5-.1.1 1-1.9.3-4.9 12.3-3.4 7.6h-3.4v-.2zM258 28.8c0 4.5-2.7 7-7.4 7.8-4 0-6.7-3.1-6.7-7.2 0-4.5 2.7-7 7.4-7.8 4 0 6.7 3.1 6.7 7.2zm-6.6 6.3c2.4 0 3.6-2.5 3.6-5.7 0-3.8-1.8-6.4-4.4-6.4-2.4 0-3.6 2.5-3.6 5.7 0 3.5 1.7 6.4 4.4 6.4zm13.4-12.7h3.8v1.4h-3.8v11.1l3.5.2-.1 1.1-4.7-.1-3.4.1-.2-1 2.1-.3V23.8h-2.6v-.5l.9-1h1.7V22c0-1.8.6-3 1.7-4.2l2.5-2.9h3.8v2.4h-4l-.6.8c-.4.6-.6 1.4-.6 3.4v.9zm26.7 13.8l-4.9-.1-5 .1-.2-1 3.6-.4V16.6l-4.5.1-1.4 3.8H278v-5.3l8.6.1 8.6-.1v5.3H294l-1.4-3.8-4.5-.1v18.2l3.5.4-.1 1zm5.3-7.7c0 3.4 1.8 5.9 5 5.9 1.2 0 2.6-.6 3.8-1.3l.5 1.1c-1.4 1-3.3 1.8-5.2 2.4-3.6 0-6.9-2.6-6.9-7.3 0-4.4 2.7-6.8 6.8-7.7 4 0 5.3 2.5 5.3 5.6v1.3h-9.3zm6-1.5c0-2.3-.5-3.9-2.8-3.9-1.8 0-3 1.7-3.2 4.2l6-.3zm10 8.1l-.1 1-2.3-.1-3.1.1-.2-1 2.1-.3 4.4-5.5-4.3-6-1.9-.3.2-1.1 3.4.1 2.9-.1.1 1.1-1.2.3 2.2 3.3.2.8 2.8-4.1-1.5-.3.2-1.1 2.3.1 3.1-.1.1 1.1-2.2.3-4 4.8 4.7 6.6 1.9.3-.1 1-3.5-.1-2.8.1-.2-1 1.2-.3-2.7-3.9-.2-.7-3.2 4.6 1.7.4zm17-13.5c3.8 0 4.7 1 4.7 4.8v5.9c0 1.3.2 1.8.5 2.2h1.5l.1 1-3.9.8-.9-2.3-3.6 2.6c-2.6 0-4.4-1.4-4.4-3.8 0-1.1.4-1.9 1-2.8l6.7-2.2v-1.5c0-1.8-.1-2.9-1.8-2.9-.8 0-1.8.3-2.5.5l-.5 2.4h-2.6V24l5.7-2.4zm1.9 7.4l-4.3 1.8c-.5.5-.6 1.1-.6 1.7 0 1.5.9 2.1 1.7 2.1.8 0 1.6-.5 1.9-.8l1.3-.9V29zm14.3-5.3c-.3-.2-1.2-.7-2.3-.7-1.2 0-2.3.6-2.3 1.8 0 1 .8 1.6 2.1 2.2l2.3 1.2c2 1 2.8 2.2 2.8 3.9 0 2.7-2.2 3.7-5.6 4.5-1.8 0-3.8-.9-4.6-1.4l-.6-3.4h1.9l1 2.5c.6.4 1.5.8 2.5.8 1.6 0 2.4-1 2.4-2.3 0-1.2-.6-1.7-2.2-2.5l-2.4-1.2c-1.3-.7-2.5-1.8-2.5-3.5 0-2.1 2-3.3 5.4-4 1.6 0 3.4.7 4.2 1.3v3h-1.6l-.5-2.2zm17.8-2.1c3.8 0 4.7 1 4.7 4.8v5.9c0 1.3.2 1.8.5 2.2h1.5l.1 1-3.9.8-.9-2.3-3.6 2.6c-2.6 0-4.4-1.4-4.4-3.8 0-1.1.4-1.9 1-2.8l6.7-2.2v-1.5c0-1.8-.1-2.9-1.8-2.9-.8 0-1.8.3-2.5.5l-.5 2.4h-2.6V24l5.7-2.4zm1.9 7.4l-4.3 1.8c-.5.5-.6 1.1-.6 1.7 0 1.5.9 2.1 1.7 2.1.8 0 1.6-.5 1.9-.8l1.3-.9V29zm4.8-5.2v-.5l1-1h1.9v-2l2-1.9h.8v4.1h4.5v1.3h-4.5v8.8c0 .9.3 1.8 1.6 1.8.9 0 1.5-.3 2.4-.7l.5 1-3.5 2c-3.4 0-3.8-1.2-3.8-3.9v-8.9h-2.9v-.1zm22.9 5.3l-2 5.6 2.6.4-.2 1-3.6-.1-3.2.1-.2-1 2.3-.3 7.4-19.4 1.8-.5 7.8 19.9 2.3.3-.1 1-4.1-.1-4 .1-.2-1 2.5-.4-2-5.6h-7.1zm4-9.3l-.2-1.6-3.3 9.5h6.4l-2.9-7.9zm24.1 12.5c0 1.3.2 1.8.4 2.2h1.5l.1 1-3.9.8-.8-2.4-4.3 2.7c-4 0-4.6-1.4-4.6-4.9v-7.8l-2.1.1-.2-1.2 3.6-.8 1.5-.1v10c0 1.6.7 2.2 2.1 2.2.9 0 2.1-.8 3.3-1.5l.6-.4v-8.4l-1.8.1-.2-1.2 3.3-.8 1.5-.1v10.5zm11.4-8.6c-.3-.2-1.2-.7-2.3-.7-1.2 0-2.3.6-2.3 1.8 0 1 .8 1.6 2.1 2.2l2.3 1.2c2 1 2.8 2.2 2.8 3.9 0 2.7-2.2 3.7-5.6 4.5-1.8 0-3.8-.9-4.6-1.4l-.6-3.4h1.9l1 2.5c.6.4 1.5.8 2.5.8 1.6 0 2.4-1 2.4-2.3 0-1.2-.6-1.7-2.2-2.5l-2.4-1.2c-1.3-.7-2.5-1.8-2.5-3.5 0-2.1 2-3.3 5.4-4 1.6 0 3.4.7 4.2 1.3v3h-1.6l-.5-2.2zm3.6.1v-.5l1-1h1.9v-2l2-1.9h.8v4.1h4.5v1.3h-4.5v8.8c0 .9.3 1.8 1.6 1.8.9 0 1.5-.3 2.4-.7l.5 1-3.5 2c-3.4 0-3.8-1.2-3.8-3.9v-8.9h-2.9v-.1zm15.6 12.3l-3.4.1-.2-1 2.1-.3v-11l-2.1.2-.1-1.1 3.6-.9 1.5-.1v12.9l2.2.3-.2 1-3.4-.1zm-1.5-20.6l2.2-.1.8.1.2 1.7-.3 1.4-2.1.2-.8-.2-.2-1.7.2-1.4zm10 20.6l-3.4.1-.2-1 2.1-.3v-11l-2.1.2-.1-1.1 3.6-.9 1.3-.1.1 2.5 4.4-2.9c3.8 0 4.5 1.3 4.5 4.9v8.3l2.3.3-.1 1-3.5-.1-2.9.1-.1-1 1.5-.3v-8.6c0-1.6-.7-2.2-2-2.2-1 0-2.1.7-3.1 1.4l-.9.6v8.9l1.6.3-.1 1-2.9-.1z" fill="#FFF"/></svg>