<svg xmlns="http://www.w3.org/2000/svg" width="154" height="34"><g fill="#fff"><path d="M148.3 14.1l-4.5-2c-2.1-.9-3.7-2.3-3.7-4.4 0-2.6 1.8-4.3 4.9-4.3 2.3 0 3.6.9 4.6 1.9l1.1 3.6h2V3.6c-2-1.4-4.7-2.3-7.1-2.3-5.4 1.1-9.3 3.6-9.3 7.9 0 3.5 2.3 5.3 5.1 6.5l4.7 2.1c2.3 1 4.1 2.5 4.1 5.2 0 2.9-2 5-5.3 5-2.2 0-4.3-1-5.5-2.5l-1.4-3.3h-2.7l.9 5.3c2.1 1.6 4.5 2.7 8.1 2.7 7.3-1.5 9.8-5.1 9.8-8.7-.1-4.1-2.8-6.1-5.8-7.4zM121.8 1.7l-2.3.7-9.7 25.3-1.9.3-1.9-.3-8.7-12.8 8-11 3-.4-.1-1.5-4.6.1-4.5-.1-.2 1.4 3.4.5-6.2 9.1-5.5-9.1 3.3-.5-.2-1.4-5.5.2-5.6-.2-.2 1.4 3 .4L93.5 16l-8.4 11.6-3.1.4.2 1.4 4.4-.1 4.6.1.2-1.4-3.2-.5 6.7-9.7 6.1 9.7-3.4.5.2 1.4 5.6-.1 4.6.1 3.2-.1 4.7.1.2-1.4-3.4-.5 2.5-7.3h9.6l2.7 7.3-3.3.5.2 1.4 5.2-.1 5.4.1.2-1.4-3-.4-10.4-25.9zm-6.1 16.7l4-11.7 4.3 11.7h-8.3zm-39.2 9.1l-10.8.1V15.9l5.5.1 1.6 4.1h1.3l-.4-5.2.4-4.9h-1.3l-1.6 4.1-5.5.1V3.9l10.4.1 2.2 5h1.3l-.4-7-15.5.1-5.4-.1-.2 1.4 3.5.5v23.7l-3.5.5.2 1.3 5.4-.1 15.5.1 1.4-7.2h-1.5zM33.5 2v6.9h1.6L36.9 4l5.8-.1v23.7l-4.7.5.2 1.3 6.6-.1 6.3.1.2-1.3-4.5-.5V3.9l5.9.1 1.8 4.9H56V2l-11.3.1zM21.7 21.3c-.3.3-.7.6-1.2.7.1-.5.3-.9.6-1.2.3-.3.7-.6 1.2-.7-.1.5-.3.9-.6 1.2zM20 18.7c-.1-.5 0-.9.2-1.3.3.3.5.8.6 1.2.1.5 0 .9-.2 1.3-.3-.4-.5-.8-.6-1.2zm1-3.5c-.1-.5 0-.9.1-1.3.3.3.5.7.6 1.2.1.5 0 .9-.1 1.3-.3-.4-.6-.8-.6-1.2zm2.1 1c0 .5-.1.9-.3 1.3-.2.4-.6.7-1 .9 0-.5.1-.9.3-1.3.3-.4.6-.7 1-.9zm-3.3 8.6c-.4.3-.8.4-1.3.4.2-.4.4-.8.8-1.1.4-.3.8-.4 1.3-.4-.2.5-.4.8-.8 1.1zm-1.1-2.9c0-.5.2-.9.5-1.3.2.4.3.8.3 1.3s-.2.9-.5 1.3c-.2-.4-.3-.9-.3-1.3zM17.5 25c-.1.4-.4.8-.7 1.1-.1-.4-.1-.9 0-1.3s.4-.8.7-1.1c.1.3.2.8 0 1.3zm.7 2c-.2.4-.6.7-1 .9-.3.1-.6.1-.9.1h-.4c.2-.4.6-.7 1-.9.4-.2.9-.2 1.3-.1zm-3.9.1c.2-.4.6-.7 1-.9 0 .5 0 .9-.3 1.3-.2.4-.6.7-1 .9-.1-.4 0-.9.3-1.3zm-5.2.7c-.4-.2-.8-.5-1-.9.4-.1.9 0 1.3.2s.8.5 1 .9c-.4.1-.8 0-1.3-.2zM8.8 25c-.1-.4-.1-.9 0-1.3.4.3.6.7.7 1.1.1.4.1.9 0 1.3-.3-.3-.6-.7-.7-1.1zm2.3 1.2c.4.2.7.5 1 .9.2.4.3.9.3 1.3-.4-.2-.7-.5-1-.9-.2-.4-.3-.9-.3-1.3zm-4.6-1.4c-.4-.3-.7-.6-.8-1.1.5 0 .9.2 1.3.4.4.3.7.6.8 1.1-.4 0-.9-.1-1.3-.4zm.6-4.2c.3.4.5.8.5 1.2 0 .5-.1.9-.3 1.3-.3-.4-.5-.8-.5-1.3 0-.3.1-.8.3-1.2zm-2.5.7c-.3-.3-.5-.8-.6-1.2.4.1.8.3 1.2.7.3.3.5.8.6 1.2-.5-.1-.9-.3-1.2-.7zm-.1-2.9c-.4-.2-.8-.5-1-.9s-.3-.9-.3-1.3c.4.2.8.5 1 .9.2.4.3.9.3 1.3zm.1-3.4c.1-.5.3-.9.6-1.2.2.4.2.9.1 1.3-.1.5-.3.9-.6 1.2-.1-.4-.2-.8-.1-1.3zm.9 3.5c.1-.5.3-.9.6-1.2.2.4.3.9.2 1.3-.1.5-.3.9-.6 1.2-.2-.3-.3-.8-.2-1.3zm16.2.6c.7-.2 1.3-.7 1.7-1.3.4-.6.5-1.4.3-2.1l-.1-.3-.3.1c-.4.1-.7.3-1 .5.1-.4.1-.7 0-1.1-.1-.7-.5-1.4-1.1-1.8l-.3-.2-.2.3c-.4.6-.5 1.4-.4 2.1.1.7.5 1.4 1.1 1.8-.1.2-.2.5-.2.8-.2-.5-.5-.9-.9-1.2l-.3-.2v.2c-.4.6-.6 1.3-.5 2.1.1.7.5 1.4 1 1.9-.2.2-.3.5-.4.7-.1-.5-.3-1-.6-1.4l-.2-.3-.3.2c-.5.5-.9 1.2-.9 1.9-.1.7.2 1.5.6 2-.2.2-.4.4-.5.6 0-.5-.1-1-.3-1.5l-.1-.3-.3.2c-.6.4-1.1 1-1.3 1.7-.2.8-.2 1.5.2 2.2-.2.1-.5.3-.7.5.1-.5.1-1 0-1.5l-.1-.3-.3.1c-.7.2-1.3.7-1.6 1.4-.3.6-.4 1.3-.3 2-.1.1-.2.1-.3.2-.1-.1-.2-.1-.3-.2.2-.7.1-1.4-.3-2-.4-.6-.9-1.1-1.6-1.4l-.3-.1-.1.3c-.1.5-.1 1 0 1.5-.2-.2-.4-.4-.7-.5.3-.7.4-1.4.2-2.1-.2-.7-.7-1.3-1.3-1.7l-.3-.2v.3c-.2.5-.3 1-.3 1.5-.1-.2-.3-.5-.5-.6.5-.6.7-1.3.6-2-.1-.7-.4-1.4-.9-1.9l-.3-.3-.2.3c-.3.4-.5.9-.6 1.4-.1-.3-.2-.5-.4-.7.6-.5.9-1.1 1-1.9.2-.8 0-1.5-.4-2.1l-.2-.3-.3.2c-.4.3-.7.8-.9 1.2 0-.3-.1-.5-.2-.8.6-.4 1-1.1 1.1-1.8.1-.7 0-1.5-.4-2.1l-.2-.3-.3.2c-.6.4-1 1.1-1.1 1.8-.1.4-.1.7 0 1.1-.3-.2-.6-.4-1-.5l-.3-.1-.1.3c-.2.7 0 1.5.3 2.1.4.6 1 1.1 1.7 1.3l.3.1c0 .2.1.5.2.7-.4-.3-.8-.4-1.3-.4h-.3v.3c0 .7.3 1.4.7 2 .5.5 1.2.9 1.9.9h.3l.3.6c-.3-.1-.7-.2-1-.2h-.7l.1.5c.1.7.5 1.4 1.1 1.8.5.4 1.1.5 1.7.5h.7c.1.2.3.4.5.5-.5-.1-.9 0-1.4.1l-.3.1.1.3c.3.7.8 1.2 1.5 1.5.4.2.8.2 1.2.2.3 0 .6-.1 1-.2l.2-.1c.4.3.8.6 1.4 1l-.9.6.6.4.9-.6c.3.2.5.4.9.6l.6-.4-.9-.6c.6-.4 1-.7 1.4-1l.2.1c.3.1.6.2 1 .2s.8-.1 1.2-.2c.7-.3 1.2-.8 1.5-1.5l.1-.3-.3-.1c-.4-.2-.9-.2-1.4-.1.2-.2.3-.4.4-.6h.7c.6 0 1.2-.2 1.7-.5.6-.4 1-1.1 1.1-1.8l.1-.3h-.7c-.3 0-.7.1-1 .2l.3-.6h.3c.7-.1 1.4-.4 1.9-.9s.8-1.2.7-2v-.3h-.3c-.5 0-.9.2-1.3.4.1-.2.1-.4.2-.7v-.1z"/><path d="M12.4 16.9l.8-2 .8 2 2.1.1-1.6 1.4.5 2.1-1.8-1.1-1.8 1.1.5-2.1-1.6-1.4 2.1-.1zm-4.8-.7l3.4 2.5-1.3 4.1 3.5-2.5 3.5 2.5-1.3-4 3.4-2.5h-4.2l-1.3-4-1.3 4-4.4-.1zm9-7.7c-.7-.1-1.4-.2-2-.2-.3 0-.6 0-.9.1l-.1-4v-.7c.3-.1.6-.2 1.1-.2.6 0 1.2.1 1.9.2.6.1 1.2.2 1.8.2l.2 4.8c-.7 0-1.4-.1-2-.2zm-6.8 0c-.7.1-1.3.2-1.9.2L8 3.9c.6 0 1.2-.1 1.8-.2.7-.1 1.3-.2 1.9-.2.4 0 .8.1 1.1.2v.7l-.1 4c-.3-.1-.5-.1-.9-.1-.6 0-1.3.1-2 .2zm10.1-2.8v-.9h-.6V3.2H19c-.8 0-1.6-.1-2.4-.2-.7-.1-1.4-.2-2-.2-.6 0-1.1.1-1.5.3-.4-.2-.9-.3-1.5-.3s-1.3.1-2 .2c-.6.1-1.4.2-2.2.2H7v1.6h-.6v.9H7v1.2h-.6v.9H7v1.7h.4c.9 0 1.7-.1 2.5-.3.7-.1 1.3-.2 1.9-.2.4 0 .8.1 1 .2h.7c.3-.1.6-.2 1-.2.6 0 1.2.1 1.9.2.8.1 1.7.3 2.5.3h.4V7.8h.6v-.9h-.6V5.7h.6zm-10-1.3V5c-.4.1-.8.1-1.2.2v-.6c.4 0 .7-.1 1.1-.1 0-.1 0-.1.1-.1zm.4 0V5c.6-.1 1.2-.2 1.8-.1v-.6c-.5-.1-1.1 0-1.8.1zm-.4 2.8h-.1c-.4.1-.8.1-1.2.2V8c.4 0 .9-.1 1.3-.2v-.6zm.4-.1v.6c.6-.1 1.2-.1 1.7-.1V7c-.5 0-1.1 0-1.7.1zm-.5-1.3v.6h.1c.8-.1 1.6-.2 2.2-.2v-.6c-.7 0-1.5.1-2.3.2zm-.5.1c-.2 0-.4 0-.7.1v.6c.2 0 .5-.1.7-.1v-.6zm6.5-1.6c-.5-.1-1-.1-1.5-.1v.6c.4 0 .9 0 1.5.1v-.6zm1.9.3c-.4 0-.7-.1-1.1-.1-.1 0-.3 0-.4-.1V5h.3c.4.1.8.1 1.2.2v-.6zm-2.1 1.1c-.5-.1-.9-.1-1.3-.1v.6c.4 0 .8 0 1.3.1v-.6zm2.1.3c-.4 0-.8-.1-1.1-.2-.2 0-.3-.1-.5-.1v.6c.1 0 .3 0 .4.1.4.1.8.1 1.2.2V6zm-1.1 1.8c.4.1.8.1 1.2.2v-.6c-.4 0-.8-.1-1.2-.2h-.1v.6h.1zm-.5-.7c-.6 0-1.2-.1-1.7-.1v.6c.5 0 1.1 0 1.7.1v-.6z"/><path d="M21.8 25.5c-.6.9-1.3 1.7-2.2 2.6-2.6 2.4-5.6 3.8-6.4 4.1-.8-.3-3.8-1.7-6.4-4.1-.9-.8-1.6-1.7-2.2-2.6-3-4.4-3.4-9.4-3.4-13.4l12-.7 12 .7c0 4-.4 9.1-3.4 13.4zM1.9 2c2.2-.2 7.2-.7 11.3-.7 4.1 0 9.1.5 11.3.7l.6 8.8h-24L1.9 2zm24.5-1l-.5-.1c-.1 0-7.2-.9-12.7-.9C7.7 0 .6.9.5.9L0 1v11.2c0 4.1.4 9.4 3.6 14.1.7 1 1.4 1.8 2.3 2.7 1.7 1.7 4 3.2 7.3 5 3.3-1.8 5.5-3.4 7.3-5 .9-.9 1.6-1.7 2.3-2.7 3.2-4.7 3.6-10 3.6-14.1V1z"/></g></svg>